<svg width="894" height="240" viewBox="0 0 894 240" fill="none" xmlns="http://www.w3.org/2000/svg">
<path d="M100.6 164.2H51.5996L36.5996 194H-0.000391245L79.5996 51H115.6L139.4 194H104L100.6 164.2ZM64.9996 136.8H97.7996L91.7996 84H91.3996L64.9996 136.8ZM176.476 51H212.476L184.676 194H148.676L176.476 51ZM348.129 97.6C347.529 87.8 343.729 77.2 324.929 77.2C300.329 77.2 286.529 96.4 281.129 124.2C276.129 150.2 280.729 167.8 304.729 167.8C322.329 167.8 336.929 157 340.129 143.2L312.729 144L317.729 118H382.129L367.329 194H341.729V175.8L341.329 176.6C332.129 189.6 317.729 197.2 297.729 197.2C256.129 197.2 237.329 164.8 245.929 120.6C253.929 78.6 283.129 47.8 327.129 47.8C367.329 47.8 385.329 71.8 383.529 99.2L348.129 97.6ZM436.442 105.8H498.842L493.042 135.2H430.642L425.042 164.6H498.642L492.842 194H383.242L411.042 51H519.442L513.842 80.4H441.442L436.442 105.8ZM561.442 105.8H623.842L618.042 135.2H555.642L550.042 164.6H623.642L617.842 194H508.242L536.042 51H644.442L638.842 80.4H566.442L561.442 105.8ZM661.042 51H697.042L685.442 109L746.442 51H789.242L722.242 114L762.642 194H721.442L695.042 139.8L677.042 156.2L669.242 194H633.242L661.042 51ZM836.525 105.8C865.125 116.8 886.125 124.2 883.925 155.8C882.125 182.6 859.725 197.2 824.925 197.2C786.725 197.2 763.725 178 763.725 147.8H799.325C799.325 163 812.925 167.8 826.925 167.8C839.325 167.8 847.125 164 848.125 154.6C849.325 142.6 835.925 141.4 817.925 134.8C793.725 126 775.125 114.8 778.925 87.4C782.925 59.2 808.125 47.8 837.925 47.8C872.325 47.8 893.325 66.2 893.325 93.6H857.925C858.325 82.8 849.125 77.2 836.325 77.2C824.525 77.2 815.525 80.6 814.525 88.4C813.525 96.4 820.725 99.8 836.525 105.8Z" fill="black"/>
</svg>
