<svg width="179" height="51" viewBox="0 0 179 51" fill="none" xmlns="http://www.w3.org/2000/svg">
<path d="M32.9049 9.16943C32.7735 8.40646 32.0483 7.89517 31.2842 8.0269L24.8793 9.13574L29.4576 3.0898C29.9248 2.47253 29.8038 1.5929 29.186 1.12543C28.5687 0.657953 27.6896 0.779545 27.2218 1.39682L22.1445 8.10156L21.4205 1.25469C21.3389 0.484875 20.6471 -0.0718764 19.8786 0.00754212C19.1086 0.0891515 18.5504 0.779271 18.6315 1.54936L19.5291 10.0375C17.4328 9.80289 15.4296 10.2612 13.5564 11.4504C4.48158 17.2134 1.06549 38.9569 0.0182622 48.0374C-0.110998 49.1547 0.453969 50.2042 1.45765 50.7108C1.8427 50.9052 2.25321 51 2.65989 51C3.31358 51 3.95687 50.7546 4.46378 50.2808L4.46351 50.2814C21.2917 34.5751 29.077 23.1597 27.6031 16.3521C27.3135 15.016 26.5507 13.3594 24.7039 12.0119L31.7629 10.7901C32.5259 10.6581 33.0375 9.93239 32.9049 9.16943ZM18.5706 30.2875C17.8408 30.6288 14.7655 31.7722 11.1067 28.874C10.3785 28.2978 9.32091 28.4205 8.74307 29.1478C8.16606 29.8763 8.28874 30.9345 9.0172 31.5118C11.3681 33.3742 13.604 34.0345 15.4669 34.145C12.5178 37.6101 8.65534 41.6821 3.60004 46.4737C3.91812 44.0211 4.31029 41.516 4.77516 39.0361C5.62059 39.5339 6.7178 39.8715 8.13429 39.8715C8.23233 39.8715 8.33256 39.8699 8.43361 39.8666C9.36254 39.837 10.091 39.0598 10.0611 38.1309C10.031 37.202 9.24916 36.4757 8.32517 36.5036C6.168 36.5584 5.76734 35.4707 5.69367 35.1207C5.68002 35.0396 5.65458 34.9636 5.63011 34.8874C6.59576 30.608 7.7908 26.5471 9.21476 23.1244C9.36373 23.3072 9.52332 23.4891 9.70568 23.6674C11.3094 25.2352 13.7223 26.0264 16.8909 26.0264C17.3186 26.0264 17.7612 26.0119 18.2163 25.9832C19.1436 25.9243 19.8474 25.1246 19.7888 24.1973C19.7302 23.2701 18.9415 22.5668 18.0027 22.6246C15.2524 22.8004 13.2089 22.343 12.1041 21.3051C11.2122 20.4671 11.184 19.47 11.1831 19.387C11.1854 19.2961 11.175 19.2081 11.1633 19.1207C12.4233 16.9458 13.822 15.2682 15.3606 14.2911C16.3733 13.6481 17.4194 13.3277 18.5236 13.3277C19.211 13.3277 19.9208 13.452 20.658 13.7001C22.7826 14.4143 23.9783 15.5147 24.314 17.0645C24.7366 19.0159 24.1223 22.923 18.5706 30.2875Z" fill="black"/>
<path d="M102.534 23.3373C102.73 23.141 102.926 22.9938 103.074 22.7975C104.35 21.4726 105.724 20.2458 107.588 19.8532C111.318 19.019 114.458 19.6569 116.568 23.2392C116.814 23.6317 116.961 23.6808 117.206 23.2882C118.727 21.1291 120.838 20.0986 123.389 19.706C124.861 19.4606 126.334 19.4116 127.757 19.9023C130.456 20.8837 132.026 22.9447 132.713 25.6437C132.958 26.527 133.007 27.5084 133.007 28.4407C133.056 33.0535 133.007 37.6662 133.007 42.2789C133.007 43.1131 133.007 43.1131 132.173 43.1131C131.143 43.1131 130.112 43.0641 129.131 43.1131C128.493 43.1622 128.296 42.9659 128.296 42.328C128.346 38.2551 128.296 34.2312 128.296 30.1583C128.296 28.7842 128.149 27.4102 127.708 26.0853C127.119 24.2697 125.401 23.6808 123.929 23.7789C120.102 24.0243 118.188 26.527 118.041 29.962C117.844 34.0349 117.942 38.1569 117.893 42.2299C117.893 43.1131 117.893 43.1131 117.01 43.1131C115.979 43.1131 114.949 43.1131 113.869 43.1131C113.33 43.1131 113.182 42.9659 113.182 42.4261C113.182 38.5986 113.231 34.771 113.182 30.9434C113.182 29.6185 112.986 28.2445 112.692 26.9195C112.103 24.3187 110.287 23.3373 107.49 23.8771C105.38 24.2697 103.957 25.5455 103.319 27.5575C102.926 28.8824 102.681 30.2564 102.632 31.6304C102.534 35.2126 102.583 38.7948 102.632 42.3771C102.632 42.9169 102.485 43.1131 101.945 43.1131C100.767 43.0641 99.6387 43.1131 98.4609 43.1131C98.0684 43.1131 97.9211 43.015 97.9211 42.5734C97.9211 35.3108 97.9211 28.0482 97.9211 20.7856C97.9211 20.4421 98.0193 20.2949 98.3628 20.2949C99.4914 20.2949 100.62 20.2949 101.749 20.2949C102.141 20.2949 102.289 20.4421 102.289 20.8347C102.289 21.6198 102.289 22.4049 102.289 23.1901C102.387 23.2882 102.485 23.3373 102.534 23.3373Z" fill="black"/>
<path d="M73.6297 29.4713C74.3657 27.214 73.0899 24.7114 70.8326 24.0244C69.5076 23.6318 68.1336 23.4355 66.7106 23.7299C65.1893 24.0244 64.0116 24.8095 63.2265 26.1344C62.9321 26.6252 62.7358 26.6252 62.2451 26.3798C61.3618 25.9381 60.4785 25.5456 59.5952 25.1039C59.3989 25.0058 59.1535 24.8586 58.9082 24.7604C59.497 23.3864 60.4294 22.405 61.5581 21.6198C64.1588 19.7061 67.1031 19.2644 70.2437 19.6079C72.4519 19.8533 74.3657 20.6875 75.887 22.2578C77.31 23.7299 78.1933 25.4474 78.2915 27.5084C78.3896 28.8334 78.3896 30.1092 78.3896 31.4342C78.4387 35.1145 78.4387 38.844 78.4877 42.5243C78.4877 42.966 78.3405 43.1623 77.8989 43.1623C76.7702 43.1132 75.6416 43.1132 74.5129 43.1623C74.1204 43.1623 73.9732 43.0151 73.9241 42.6225C73.9241 42.0827 73.875 41.592 73.8259 41.0522C73.8259 40.8068 73.7769 40.5615 73.7278 40.3652C73.6297 40.3161 73.5806 40.2671 73.4824 40.218C73.2371 40.5615 72.9917 40.9541 72.6973 41.2485C69.9493 43.8493 65.7782 44.6835 62.2451 43.0641C57.1907 40.7087 57.0435 35.0655 59.6933 32.0721C60.9692 30.649 62.6867 29.962 64.5514 29.5694C67.3485 28.9806 70.0965 28.8334 72.8936 29.5204C73.188 29.5204 73.3843 29.4713 73.6297 29.4713ZM68.9679 32.6119C67.8392 32.7591 66.7106 32.9063 65.631 33.1517C63.8153 33.5442 62.9321 34.5748 62.7848 36.3904C62.6867 37.6663 63.6681 39.0403 65.1403 39.6782C66.6124 40.3161 68.0846 40.218 69.5567 39.6291C72.1575 38.5986 73.7278 36.832 74.0713 33.9859C74.1204 33.5442 73.9732 33.2498 73.4824 33.2007C71.9612 33.0535 70.4891 32.8082 68.9679 32.6119Z" fill="black"/>
<path d="M165.394 38.9911C165.836 39.0402 166.13 39.0893 166.425 39.0893C170.056 39.0893 173.688 39.0893 177.368 39.0893C178.006 39.0893 178.202 39.2365 178.153 39.8744C178.104 40.7577 178.104 41.641 178.153 42.4752C178.202 43.0641 178.006 43.2604 177.417 43.2604C173.344 43.2113 169.32 43.2604 165.247 43.2604C163.579 43.2604 161.91 43.2113 160.242 43.2604C159.653 43.2604 159.457 43.0641 159.506 42.5243C159.555 42.0827 159.555 41.5919 159.506 41.1503C159.31 39.8254 159.849 38.893 160.733 37.9606C164.462 33.6914 168.142 29.3731 171.872 25.0548C172.019 24.9076 172.117 24.7113 172.313 24.466C171.97 24.466 171.725 24.4169 171.528 24.4169C167.946 24.4169 164.364 24.4169 160.782 24.4169C160.193 24.4169 160.046 24.2206 160.046 23.6808C160.095 22.7484 160.095 21.767 160.046 20.7856C160.046 20.393 160.193 20.2458 160.585 20.2458C166.229 20.2458 171.872 20.2458 177.515 20.2458C177.957 20.2458 178.104 20.393 178.104 20.8347C178.104 21.8652 178.104 22.8957 178.104 23.8771C178.104 24.1225 177.957 24.4169 177.81 24.6132C173.884 29.2259 169.909 33.7896 165.934 38.3532C165.787 38.5004 165.64 38.6476 165.394 38.9911Z" fill="black"/>
<path d="M142.87 39.0403C147.189 39.0403 151.311 39.0403 155.531 39.0403C155.531 40.5125 155.531 41.8374 155.531 43.2605C155.335 43.2605 155.089 43.3095 154.893 43.3095C149.151 43.3095 143.459 43.3095 137.718 43.3095C137.129 43.3095 136.933 43.1623 136.982 42.5735C137.031 41.9355 137.031 41.2976 136.982 40.6597C136.884 39.7273 137.227 39.0894 137.816 38.4024C141.693 33.9369 145.52 29.4714 149.397 24.9568C149.495 24.8586 149.544 24.7114 149.691 24.5151C149.348 24.5151 149.151 24.4661 148.906 24.4661C145.324 24.4661 141.742 24.4661 138.159 24.4661C137.62 24.4661 137.423 24.3188 137.423 23.7791C137.472 22.8467 137.423 21.8653 137.423 20.9329C137.423 20.5403 137.522 20.344 137.963 20.344C143.606 20.344 149.25 20.344 154.893 20.344C155.334 20.344 155.482 20.4913 155.482 20.9329C155.433 21.8162 155.433 22.6995 155.482 23.5337C155.531 24.1226 155.285 24.5642 154.942 25.0058C151.065 29.4714 147.189 33.9859 143.312 38.4515C143.214 38.5005 143.116 38.6968 142.87 39.0403Z" fill="black"/>
<path d="M56.8967 9.69553C56.406 10.9714 56.0134 12.1982 55.5227 13.3759C55.4736 13.5231 55.081 13.6213 54.8848 13.6213C54.1487 13.6213 53.4617 13.474 52.7256 13.5231C51.7442 13.5722 51.0081 14.161 50.6155 15.0443C49.9285 16.5165 49.9776 18.1358 50.0267 19.7061C50.0267 20.1968 50.4192 20.1968 50.8118 20.1968C52.1858 20.1968 53.5598 20.2459 54.9338 20.1968C55.4736 20.1968 55.719 20.3441 55.719 20.9329C55.6699 21.8653 55.719 22.7976 55.7681 23.73C55.8171 24.1716 55.6208 24.2698 55.2283 24.2698C53.8052 24.2698 52.3821 24.2698 50.959 24.2698C50.0757 24.2698 50.0267 24.3189 50.0267 25.2512C50.0267 30.9435 50.0267 36.6358 50.0267 42.3772C50.0267 43.0151 49.8795 43.2114 49.2415 43.2114C48.162 43.1624 47.1315 43.1624 46.0519 43.2114C45.463 43.2114 45.3158 43.0151 45.3158 42.4753C45.3158 36.783 45.3158 31.0907 45.3158 25.3494C45.3158 24.3189 45.3158 24.3189 44.2853 24.3189C43.4511 24.3189 42.6169 24.3189 41.7826 24.3189C41.3901 24.3189 41.2429 24.2207 41.2429 23.7791C41.2429 22.7976 41.2429 21.7671 41.2429 20.7857C41.2429 20.3931 41.3901 20.2459 41.7826 20.2459C42.5678 20.2459 43.3529 20.2459 44.1381 20.1478C44.9723 20.0496 45.2177 19.7552 45.2667 18.8719C45.3158 17.7433 45.4139 16.6146 45.463 15.535C45.7084 12.1491 48.9471 9.64646 51.646 9.15574C53.4126 8.81224 55.1301 9.0576 56.8967 9.69553Z" fill="black"/>
<path d="M87.1244 23.5338C87.2226 23.3865 87.3207 23.2393 87.4189 23.0921C88.5475 20.982 90.4613 20.0006 92.7677 19.7062C93.9945 19.559 95.2213 19.7062 96.3499 20.1969C96.6934 20.3441 96.8406 20.4913 96.6934 20.8839C96.3499 21.8653 96.0555 22.8468 95.761 23.8282C95.6629 24.2208 95.5157 24.3189 95.074 24.2698C92.4242 23.73 90.216 24.5643 88.3512 26.4781C87.2717 27.5576 87.0754 29.0298 87.0263 30.4529C86.9772 34.2314 87.0263 38.0589 86.9772 41.8375C86.9772 42.0337 86.9772 42.23 86.9772 42.3772C87.0263 42.868 86.83 43.0643 86.3393 43.0152C85.2597 42.9661 84.1802 42.9661 83.1006 43.0152C82.6099 43.0152 82.4626 42.868 82.4626 42.3772C82.4626 39.482 82.4626 36.5868 82.4626 33.6916C82.4626 29.4714 82.4626 25.3003 82.4626 21.0802C82.4626 20.4913 82.6589 20.295 83.2478 20.295C84.2783 20.3441 85.3088 20.295 86.3884 20.295C86.83 20.295 87.0263 20.4423 87.0263 20.933C87.0263 21.7181 87.0263 22.5523 87.0263 23.3375C87.0263 23.4847 87.0754 23.5338 87.1244 23.5338Z" fill="black"/>
</svg>
