<svg xmlns="http://www.w3.org/2000/svg" viewBox="0 0 2236.9 186.8">
    <g opacity="0.9" fill="#000">
        <path d="M403.3,11.3h33.1l47.5,142.9h.8l47-142.9h33.1V184H541.9V41.4h-.8L493.3,184H472.2L424.7,41.4h-.5V184H403.4V11.3Z"/>
        <path d="M595.3,122.8v-4.4c0-40.1,23.4-64.7,58.3-64.7,36.5,0,58.3,23.9,58.3,64v4.1c0,40.1-23.6,64.5-58.6,64.5C616.6,186.3,595.3,162.7,595.3,122.8Zm93.7,1.3v-6.9c0-34.4-16.2-45.5-36-45.5-22.4,0-35.2,15.9-35.2,44.4v7.2c0,34.4,16.2,45,36,45C676.2,168.3,689,152.7,689,124.1Z"/>
        <path d="M738.6,56.3h20.8v11h1.3a78.08,78.08,0,0,1,42.9-13.6c25.2,0,37,10.5,37,35.2V184H819V93.6c0-14.6-4.9-20.8-24.9-20.8-11.3,0-24.4,4.1-33.7,8.5V184.1H738.6Z"/>
        <path d="M866.3,177.1V159.9c10.8,4.4,20,8,38,8,19.3,0,27.5-6.7,27.5-17.7,0-10.3-5.4-15.7-21.1-19.8l-12.1-3.3c-18.5-4.9-31.9-13.4-31.9-35.5,0-22.6,14.1-37.8,44.7-37.8,17,0,27.7,3.9,34.9,7.5V79c-6.7-3.1-19.8-6.7-34.2-6.7-16.4,0-24.7,5.7-24.7,17,0,10.5,5.4,14.6,18.5,18.2l12.1,3.1c24.9,6.7,34.9,14.9,34.9,37.5,0,25.2-17.7,38-45.5,38C891.2,186.1,876.9,183.2,866.3,177.1Z"/>
        <path d="M980.4,8.3h22.4V31.2H980.4Zm0,48h22.1V184H980.4Z"/>
        <path d="M1030.2,122.1v-3.9c0-44.4,26.5-64.5,56.3-64.5,34.9,0,51.6,20.3,51.6,60.4v12.3h-85.3c1.5,30.3,16.4,41.1,41.9,41.1,17,0,28-3.6,39.6-9.8v16.2c-7.5,5.7-22.1,12.3-43.2,12.3C1050.8,186.3,1030.2,161.4,1030.2,122.1Zm22.6-13.4H1115c0-26.7-10.3-37.3-29.5-37.3C1071.1,71.5,1054.9,79.4,1052.8,108.7Z"/>
        <path d="M1164.3,148.8V56.3h21.6v88.9c0,15.7,5.4,22.4,23.9,22.4,13.1,0,23.9-4.6,32.9-9.2V56.4h22.1V184.1h-18.5l-2.6-11h-1.3c-10.5,7.5-23.6,13.4-39.1,13.4C1178,186.3,1164.3,173.5,1164.3,148.8Z"/>
        <path d="M1299.7,56.3h20.8V70.4h1.3c6.9-8.5,20.8-15.7,34.7-15.7a29.48,29.48,0,0,1,8,1V75.2a84.54,84.54,0,0,0-9.8-.8,61.68,61.68,0,0,0-33.1,9.8v99.7h-21.8V56.3Z"/>
        <path d="M1378.9,101V95.1c0-62.9,37.8-86.6,85.3-86.6,21.6,0,35.2,2.6,45,7.5V51.2c-10.3-3.9-20.3-6.2-35.2-6.2-27.7,0-43.4,13.6-43.4,46.8v7.7c0,32.9,11,50.9,42.9,50.9,17.5,0,28.8-3.6,37.5-7.2v34.4c-11.8,5.4-26.5,9.2-48.6,9.2C1410,186.8,1378.9,159.6,1378.9,101Z"/>
        <path d="M1533,0h43.9V61.9h1c10.3-8.2,23.9-12.8,40.6-12.8,24.7,0,39.1,10,39.1,36.2v98.4h-43.7V97.4c0-10.8-4.6-14.4-16.7-14.4-6.9,0-15.2,2.3-20.3,4.4v96.3H1533Z"/>
        <path d="M1678.2,148.8c0-28,19.3-37.3,47.8-41.1l24.2-3.6V98.7c0-14.1-6.7-17-25.7-17a158.1,158.1,0,0,0-34.9,3.9V56.8c13.6-5.4,31.1-7.7,51.6-7.7,32.6,0,52.7,10.5,52.7,40.6V184h-36.2l-3.1-10.3h-1.3c-5.7,8-17.5,12.6-33.9,12.6C1695.1,186.3,1678.2,174.2,1678.2,148.8Zm71.9,4.6V127.7l-15.4,1.5c-10.3,1-14.6,5.1-14.6,14.9,0,11.3,5.9,14.6,14.1,14.6C1741.1,158.8,1747.3,156.5,1750.1,153.4Z"/>
        <path d="M1821.3,0h43.9V183.7h-43.9Z"/>
        <path d="M1887.8,119v-3.3c0-40.9,25.4-66.5,65-66.5,44.4,0,61.1,24.9,61.1,68.3v11.3h-81.7c2.6,20.8,14.4,26.7,36.7,26.7a107.15,107.15,0,0,0,39.6-8v27c-10,5.9-26.5,11.8-50.9,11.8C1910.7,186.3,1887.8,162.7,1887.8,119Zm44.2-14.9h40.1c0-19.3-6.4-26.2-19.3-26.2C1943.1,77.9,1933.8,83.5,1932,104.1Z"/>
        <path d="M2044.3,148V82h-16.5V51.7h16.4V20.4h43.9V51.7h26.7V82h-26.7v59.6c0,9.2,3.9,12.1,14.4,12.1a64.55,64.55,0,0,0,13.1-1.3v28.3c-5.4,2.6-15.2,5.1-29.3,5.1C2060,185.8,2044.3,177.1,2044.3,148Z"/>
        <path d="M2133.4,177.6V148.3c10.3,3.9,21.3,7.7,39.3,7.7,15.9,0,22.4-3.9,22.4-11,0-6.4-3.9-8.7-15.2-10l-12.1-1.8c-22.6-3.3-35.2-15.7-35.2-41.4,0-26.5,17.5-42.6,54.2-42.6,19,0,31.9,2.6,41.9,6.9v29a119.45,119.45,0,0,0-36.2-5.9c-13.1,0-19.3,3.3-19.3,10.3,0,6.4,4.6,8.7,15.2,10.3l12.3,1.5c26.7,3.6,36.2,18,36.2,40.9,0,29-18.2,44.2-57.8,44.2C2161.4,186.3,2144,183,2133.4,177.6Z"/>
    </g>
    <path fill="#000" d="M323.4,11.4a3.1,3.1,0,0,0-3.8-3.1,5.57,5.57,0,0,0-1.9.9l-156.1,81h0L5.3,8.9a2.07,2.07,0,0,0-1-.6,3.18,3.18,0,0,0-4.3,3L.1,174.2a3.1,3.1,0,0,0,3.8,3.1,5.57,5.57,0,0,0,1.9-.9l156.1-81h0l156.3,81.4a2.36,2.36,0,0,0,.9.6,3.18,3.18,0,0,0,4.3-3Z"/>
</svg>
