<svg class="logo" xmlns="http://www.w3.org/2000/svg" xmlns:xlink="http://www.w3.org/1999/xlink" viewBox="0 0 647.79 647.79" width="80" height="80">
        <g>
          <g>
            <path class="st0" d="M521.82,145.87c-88.18,0-110.17,246.22-147.13,271.96c6.08-51.01,11.15-111.45,15.11-171.98
              c3.04-46.32-28.22-78.29-87.23-40.12c14.67,4.96,24.32,20.74,24.64,48.13c0.04,2.96-0.27,185.2-0.27,205.59
              c65.28,0,109.38-151.82,170.23-220.18c24.65-28.89,44.58-39.76,56.79-43.84C560.16,171.99,551.21,145.87,521.82,145.87z"></path>
          </g>
          <path class="st0" d="M287.68,259.57c-0.48-40.03-20.86-57.01-47.75-48.28c-31.79,10.33-48.06,68.27-54.74,132.04
            c-0.51-31.73,0-45.37,0-61.37c0-35.2-23.2-61.36-63.19-40.7c-19.52,10.08-32.43,24.62-32.08,25.69c0.45,1.38,3.53,6.53,4.7,5.97
            c24.24-11.75,34.85,7.7,34.85,33.69c0,57.89,0,76.39,0,112.61c0,89.47,26.36,87.6,59.32,71.19c0,0-0.71-2.14-2.68-24.25
            c-2.44-124.38,21.16-210.57,36.8-215.68c13.75-4.46,8.98,28.18,8.98,95.77c0,88.96,27.84,113.68,55.8,113.68
            C287.68,459.93,287.98,285.31,287.68,259.57z"></path>
        </g>
      </svg>