<svg width="245" height="80" viewBox="0 0 245 80" fill="none" xmlns="http://www.w3.org/2000/svg">
<path d="M2.42171 33.9745C5.42001 31.1492 8.87959 29.0158 12.8581 27.5743C16.8366 26.1328 20.8728 25.4409 24.9666 25.4409C29.2334 25.4409 32.8083 25.9599 35.8066 26.9977C38.7473 28.0356 41.1113 29.6501 42.9564 31.8988C44.8015 34.0899 46.1277 36.8575 46.9926 40.2018C47.8575 43.546 48.2611 47.5246 48.2611 52.1373V77.6229H32.9813V72.2606H32.693C31.4245 74.3363 29.4641 76.0084 26.8694 77.1616C24.2747 78.3148 21.4494 78.8914 18.3934 78.8914C16.3753 78.8914 14.2419 78.6031 12.1085 78.0842C9.91746 77.5652 7.95703 76.6427 6.16958 75.4318C4.38213 74.221 2.88298 72.6065 1.72979 70.5308C0.576596 68.5127 0 65.9757 0 63.035C0 59.4025 0.980214 56.4618 2.9983 54.2131C5.01639 51.9644 7.55341 50.2346 10.7247 49.0237C13.896 47.8129 17.3556 47.0056 21.2188 46.602C25.0819 46.1984 28.8298 45.9678 32.4624 45.9678V45.1605C32.4624 42.6812 31.5975 40.836 29.81 39.6252C28.0226 38.4143 25.8892 37.8377 23.2945 37.8377C20.9305 37.8377 18.6241 38.3567 16.433 39.3369C14.2419 40.3748 12.3392 41.5856 10.7824 42.9695L2.42171 33.9745ZM32.9813 55.5969H30.8479C29.0028 55.5969 27.1577 55.6546 25.3126 55.8276C23.4675 56.0005 21.7953 56.3465 20.3539 56.8078C18.9124 57.269 17.7015 57.961 16.7213 58.8835C15.7987 59.8061 15.2798 61.0169 15.2798 62.5161C15.2798 63.4386 15.5104 64.3035 15.9141 64.9378C16.3753 65.6297 16.8943 66.1486 17.5862 66.5523C18.2781 66.9559 19.0277 67.2442 19.9502 67.4171C20.8151 67.5901 21.68 67.6478 22.4873 67.6478C25.8892 67.6478 28.4839 66.7252 30.2713 64.8801C32.0588 63.035 32.9813 60.498 32.9813 57.3267V55.5969Z" fill="white"/>
<path d="M95.1384 77.6229L55.7568 27.0554H75.1305L114.743 77.6229H95.1384Z" fill="white"/>
<path d="M168.885 52.9447C168.885 53.6366 168.885 54.2708 168.885 54.9628C168.885 55.6547 168.827 56.2889 168.77 56.8655H132.098C132.214 58.307 132.675 59.5755 133.367 60.7287C134.059 61.8819 134.981 62.8621 136.134 63.727C137.23 64.5919 138.498 65.2262 139.882 65.6874C141.266 66.1487 142.708 66.3794 144.207 66.3794C146.859 66.3794 149.108 65.9181 150.895 64.8802C152.74 63.9 154.239 62.6315 155.335 61.0747L166.925 68.3974C164.561 71.857 161.447 74.5094 157.526 76.3545C153.605 78.1996 149.108 79.1221 143.976 79.1221C140.171 79.1221 136.596 78.5456 133.194 77.3347C129.792 76.1238 126.851 74.4517 124.314 72.1453C121.777 69.8966 119.759 67.0713 118.318 63.7847C116.876 60.4404 116.126 56.6925 116.126 52.4257C116.126 48.2742 116.818 44.584 118.26 41.1821C119.701 37.8378 121.604 35.0125 124.026 32.6485C126.448 30.3421 129.331 28.497 132.675 27.2285C136.019 25.9599 139.594 25.3257 143.457 25.3257C147.205 25.3257 150.607 25.9599 153.721 27.2285C156.834 28.497 159.487 30.2844 161.735 32.6485C163.984 35.0125 165.714 37.8955 166.982 41.2974C168.251 44.757 168.885 48.6202 168.885 52.9447ZM153.548 46.6021C153.548 43.9498 152.74 41.701 151.068 39.7983C149.396 37.8955 146.917 36.9729 143.63 36.9729C142.016 36.9729 140.516 37.2036 139.19 37.7225C137.864 38.2414 136.653 38.9334 135.615 39.7983C134.578 40.6632 133.77 41.701 133.194 42.9119C132.559 44.1227 132.271 45.3336 132.156 46.6021H153.548Z" fill="white"/>
<path d="M173.729 77.6229L187.279 0.87793H203.827L190.219 77.6229H173.729Z" fill="white"/>
<path d="M226.948 34.4935C228.563 31.8988 230.523 29.823 232.772 28.2086C235.021 26.5941 237.788 25.7869 240.96 25.7869C241.594 25.7869 242.171 25.8445 242.862 25.9022C243.497 25.9598 244.016 26.0752 244.419 26.1905L241.767 40.6054C241.017 40.3748 240.325 40.2594 239.634 40.2018C238.942 40.1441 238.307 40.0865 237.731 40.0865C235.367 40.0865 233.349 40.4901 231.734 41.2973C230.12 42.1045 228.793 43.0848 227.698 44.2956C226.66 45.5065 225.853 46.775 225.392 48.1012C224.873 49.4273 224.527 50.6382 224.354 51.6761L219.799 77.6806H203.539L210.746 37.5494C211.034 36.2809 211.323 34.6088 211.611 32.5907C211.899 30.5726 212.13 28.7275 212.245 27.113H227.698C227.698 27.459 227.64 27.9203 227.583 28.6122C227.525 29.2464 227.41 29.9384 227.352 30.6303C227.237 31.3222 227.121 32.0718 227.064 32.7637C226.948 33.4556 226.891 34.0899 226.833 34.5511H226.948V34.4935Z" fill="white"/>
<path d="M55.7568 77.6229L95.369 27.0554H114.743L75.3611 77.6229H55.7568Z" fill="white"/>

</svg>
