<?xml version="1.0" encoding="UTF-8"?>
<svg xmlns="http://www.w3.org/2000/svg" width="251.718" height="58.044" viewBox="0 0 251.718 58.044">
  <g id="baseline-logo" transform="translate(0 0)">
    <path id="Tracé_119" data-name="Tracé 119" d="M35.646,31.325C35.646,37.2,32.15,41.5,22.4,41.5H0V3.81H21.433c9.639,0,13.03,4.627,13.03,10.235a8.574,8.574,0,0,1-5.223,8.4c4.9,1.831,6.405,5.117,6.405,8.885ZM10.016,12.371v6.2H20.627c2.69,0,3.821-1.13,3.821-3.12s-1.13-3.067-3.821-3.067H10.016ZM25.631,29.546c0-2.208-1.183-3.391-4.469-3.391l-11.146.053v6.73H21.162C24.448,32.937,25.631,31.754,25.631,29.546Z" transform="translate(0 -0.471)" fill="#fff"></path>
    <path id="Tracé_120" data-name="Tracé 120" d="M76.714,14.764v28H67.18l-.105-3.12a10.432,10.432,0,0,1-8.719,3.934c-8.342,0-13.626-6.625-13.626-14.809S50.005,14.01,58.356,14.01c3.987,0,7.431,1.455,10.445,6.405l-1.779-3.067.158-2.585Zm-9.586,14a6.076,6.076,0,0,0-6.458-6.353c-3.926,0-6.3,2.638-6.3,6.353a5.979,5.979,0,0,0,6.3,6.353,6.1,6.1,0,0,0,6.458-6.353Z" transform="translate(-5.535 -1.734)" fill="#fff"></path>
    <path id="Tracé_121" data-name="Tracé 121" d="M86.09,34.034h8.833c.324,1.884,2.208,2.366,5.17,2.366,3.821,0,4.574-.806,4.574-1.989,0-1.288-.911-1.831-2.69-1.989l-6.405-.6c-5.871-.535-9.21-3.014-9.21-8.509,0-6.143,4.311-9.367,13.95-9.367,6.3,0,12.6,1.4,13.083,9.315h-8.78c-.377-1.726-1.831-2.313-4.627-2.313-2.532,0-4.145.482-4.145,2.05,0,1.288.973,1.831,2.69,1.989l6.353.6c5.924.482,9.367,2.48,9.367,8.342s-4.2,9.639-14.432,9.639C92.338,43.568,86.519,41.736,86.09,34.034Z" transform="translate(-10.652 -1.726)" fill="#fff"></path>
    <path id="Tracé_122" data-name="Tracé 122" d="M138.377,36.188c2.48,0,4.311-.806,4.9-2.427h9.21c-.535,4.522-5.494,9.8-14.642,9.8-10.068,0-15.562-6.458-15.562-14.809s5.7-14.809,15.668-14.809,16.1,6.572,15.186,17.6H132.077c.7,2.962,2.585,4.627,6.3,4.627ZM132.024,25.8H143.6c-.806-3.5-2.585-4.793-5.652-4.793-3.391,0-5.275,1.56-5.924,4.793Z" transform="translate(-15.13 -1.725)" fill="#fff"></path>
    <path id="Tracé_123" data-name="Tracé 123" d="M162.47,3.2h9.744V41.431H162.47Z" transform="translate(-20.103 -0.396)" fill="#fff"></path>
    <path id="Tracé_124" data-name="Tracé 124" d="M179.67,4.9a5.15,5.15,0,0,1,10.287,0,5.15,5.15,0,0,1-10.287,0Zm.324,8.132h9.691v28h-9.691Z" transform="translate(-22.232)" fill="#fff"></path>
    <path id="Tracé_125" data-name="Tracé 125" d="M228.291,26.821V42.76H218.6V28.6c0-3.558-1.183-6.2-5.442-6.2s-5.924,2.638-5.924,6.143V42.76H197.49V14.755h9.367l.377,3.5-.859,1.989c1.884-3.5,4.574-6.3,10.5-6.3,7.913,0,11.418,4.951,11.418,12.872Z" transform="translate(-24.436 -1.725)" fill="#fff"></path>
    <path id="Tracé_126" data-name="Tracé 126" d="M253.657,36.188c2.48,0,4.311-.806,4.9-2.427h9.21c-.535,4.522-5.494,9.8-14.642,9.8-10.068,0-15.562-6.458-15.562-14.809s5.7-14.809,15.668-14.809,16.1,6.572,15.186,17.6H247.357c.7,2.962,2.585,4.627,6.3,4.627ZM247.3,25.8h11.575c-.806-3.5-2.585-4.793-5.652-4.793C249.836,21,247.952,22.562,247.3,25.8Z" transform="translate(-29.395 -1.725)" fill="#fff"></path>
    <path id="Tracé_127" data-name="Tracé 127" d="M275.28,40.53a5.251,5.251,0,1,1,5.275,5.117,4.988,4.988,0,0,1-5.275-5.117Z" transform="translate(-34.062 -4.349)" fill="#fff"></path>
    <path id="Tracé_128" data-name="Tracé 128" d="M162.11,56.53h96.074v8.509H162.11Z" transform="translate(-20.059 -6.995)" fill="#fff"></path>
  </g>
</svg>
