<svg xmlns="http://www.w3.org/2000/svg" preserveAspectRatio="xMidYMid" width="230" height="72" viewBox="0 0 230 72"><defs><style>.cls-1 { fill: #fff; fill-rule: evenodd; }</style></defs><path d="M29.983 55.228H18.305V26.453h11.678c7.447 0 10.78 3.07 10.78 7.613 0 3.11-1.81 5.322-5.06 6.468 3.99 1.146 5.84 3.48 5.84 6.55 0 5.115-4.977 8.144-11.56 8.144zm.247-24.108h-6.823v7.553h6.082c4.154.306 5.965-1.823 5.965-3.993 0-1.964-1.48-3.56-5.225-3.56zm-3.655 12.043h-3.168v7.4h6.823c4.32 0 5.8-1.884 5.8-4.012 0-2.785-4.494-3.387-9.455-3.387zm51.155-16.71v28.98h-1.358l-18.144-18.05v17.845h-5.102V26.29h1.605l17.9 18.54V26.454h5.1zm130.007-4.214c.004-.046.017-.085.04-.118.037-.052.097-.077.18-.077h1.35c.044 0 .086.016.125.05.04.033.065.07.076.11l.995 3.843h.045l1.782-3.993c.04-.08.106-.12.197-.12h.21c.102 0 .17.04.195.12l1.782 3.993h.045l.994-3.843c.01-.04.037-.077.076-.11.04-.034.08-.05.126-.05h1.35c.086 0 .148.025.185.077.027.033.038.072.035.117 0 .024-.004.052-.01.082l-2.177 7.618c-.012.044-.038.08-.08.11-.04.03-.083.045-.128.045h-.186c-.09 0-.156-.04-.197-.122l-2.102-4.64h-.04l-2.09 4.64c-.042.08-.108.122-.198.122h-.185c-.045 0-.088-.015-.13-.044-.04-.03-.066-.066-.078-.11l-2.176-7.618c-.007-.03-.01-.058-.01-.083zm8.502 21.91c.002.04-.006.083-.03.127-.052.097-.132.144-.24.144h-1.592c-.037 0-.08-.007-.124-.024-.045-.016-.073-.034-.084-.053l-2.66-3.56v3.378c0 .074-.025.137-.078.192-.052.054-.115.08-.188.08h-1.305c-.078 0-.14-.026-.19-.078-.052-.05-.078-.116-.078-.193v-7.39c0-.078.026-.144.077-.197.05-.054.112-.08.19-.08h1.304c.073 0 .136.027.188.082.053.056.08.12.08.194v2.978l2.557-3.14c.063-.077.136-.116.22-.116h1.45c.107 0 .185.05.232.147.047.097.038.188-.025.273l-2.7 3.322L216.19 44c.032.048.05.098.05.15zm-2.408 12.117c-.06 0-.113-.02-.153-.06-.043-.038-.063-.083-.063-.136v-1.065c0-.06.02-.11.063-.148.04-.04.093-.058.157-.058h2.31c.056 0 .106.02.147.066.04.044.062.094.062.15l.01 3.046c0 .073-.03.132-.09.176l-.14.078c-.063.034-.19.094-.384.18-.195.085-.397.16-.608.224-.21.066-.47.125-.786.18-.314.053-.627.08-.938.08-.545 0-1.066-.108-1.56-.323-.498-.216-.924-.505-1.28-.87-.357-.365-.64-.803-.85-1.31-.213-.51-.318-1.035-.318-1.576 0-.54.105-1.062.317-1.567.21-.504.493-.94.85-1.303.356-.364.782-.653 1.28-.868.494-.215 1.015-.32 1.56-.32.488 0 .98.093 1.478.282.5.19.944.45 1.334.784.052.042.08.093.083.154.004.06-.016.113-.062.158l-.92.957c-.1.085-.205.09-.31.012-.395-.36-.895-.54-1.5-.54-.63 0-1.164.224-1.608.67-.443.446-.664.977-.664 1.595 0 .62.224 1.15.67 1.59.448.442.986.664 1.613.664.376 0 .713-.066 1.012-.197v-.706h-.713zm-20.745-30.244c0-.373.048-.736.145-1.09.098-.354.235-.68.41-.98.177-.298.39-.573.644-.824s.532-.465.836-.64c.304-.175.633-.312.99-.41.36-.097.728-.146 1.107-.146.565 0 1.104.107 1.615.32.51.214.952.504 1.32.87s.664.8.88 1.304c.22.505.327 1.037.327 1.595s-.108 1.09-.326 1.593c-.217.504-.51.937-.88 1.3-.37.36-.81.648-1.32.86-.512.213-1.05.32-1.617.32-.568 0-1.107-.107-1.618-.32-.51-.212-.95-.5-1.318-.86-.368-.363-.658-.796-.875-1.3-.216-.505-.323-1.035-.323-1.593zm2.515 1.593c.45.446.99.67 1.617.67.632 0 1.175-.224 1.626-.67.45-.444.677-.976.677-1.593 0-.625-.226-1.16-.677-1.608-.45-.447-.994-.67-1.627-.67-.628 0-1.167.223-1.618.67-.452.447-.677.983-.677 1.608 0 .617.225 1.15.677 1.593zm.294 16.75c-.046.044-.096.066-.152.066h-1.373c-.062 0-.114-.02-.156-.064-.04-.042-.06-.093-.06-.152v-7.508c0-.06.02-.11.06-.152.042-.043.095-.064.16-.064h3.452c.455 0 .876.11 1.264.33.387.22.693.517.92.894.225.376.338.786.338 1.23 0 .515-.157.975-.473 1.382-.314.407-.732.713-1.252.918l1.594 2.862c.04.073.044.145.006.217-.038.07-.104.107-.198.107h-1.544c-.09 0-.152-.033-.186-.1l-1.54-2.978h-.79v2.864c0 .055-.023.104-.068.148zm1.77-4.48c.237 0 .44-.09.613-.274.17-.182.258-.394.258-.633 0-.238-.087-.44-.26-.61-.172-.17-.375-.255-.61-.255h-1.705v1.772h1.704zm-2.116 18.93c-.042.043-.094.064-.157.064h-1.373c-.055 0-.106-.022-.15-.067-.046-.044-.068-.094-.068-.15l-.012-7.63c0-.054.022-.103.068-.143.045-.04.095-.06.152-.06h.287l4.593 4.35h.01v-4.024c0-.06.022-.11.062-.153.04-.042.093-.064.157-.064h1.373c.056 0 .106.022.15.066.046.045.068.094.068.15v7.635c0 .056-.02.104-.066.142-.045.04-.096.058-.152.058h-.185c-.06 0-.11-.018-.146-.055l-4.537-4.5h-.01v4.23c0 .058-.022.11-.063.15zm-16.758-34.398c.218-.504.513-.936.88-1.297.37-.36.812-.65 1.326-.864.513-.215 1.053-.322 1.618-.322.567 0 1.073.086 1.52.257.45.173.872.438 1.27.796.052.044.078.1.078.166 0 .06-.023.11-.07.154l-.92.92c-.042.037-.092.055-.15.055-.057 0-.105-.018-.143-.058-.448-.414-.98-.62-1.592-.62-.656 0-1.204.23-1.646.69-.44.463-.66 1.02-.66 1.667 0 .64.22 1.188.666 1.643.445.454.995.682 1.65.682.28 0 .562-.05.843-.146.284-.097.53-.234.74-.41.04-.032.09-.047.156-.044.065.004.116.024.15.06l.92.948c.04.036.058.084.058.144 0 .066-.023.12-.068.16-.765.732-1.697 1.097-2.8 1.097-.378 0-.747-.048-1.107-.144-.36-.096-.693-.23-.996-.406-.303-.175-.583-.387-.837-.637-.255-.25-.472-.527-.65-.827-.177-.3-.317-.628-.416-.982-.098-.355-.148-.72-.148-1.094 0-.555.11-1.083.33-1.586zm-.006 17.645c-.216-.504-.324-1.035-.324-1.593 0-.372.048-.736.147-1.09.095-.354.233-.68.41-.98.175-.298.39-.573.643-.823s.53-.464.834-.64c.304-.174.635-.31.993-.41.358-.097.726-.145 1.104-.145.566 0 1.105.107 1.617.32.512.214.952.503 1.322.868.37.365.662.8.88 1.306.217.505.326 1.037.326 1.594 0 .56-.11 1.09-.327 1.593-.216.505-.51.938-.878 1.3-.37.362-.81.65-1.32.862-.513.21-1.052.317-1.618.317-.565 0-1.104-.106-1.616-.317-.512-.213-.95-.5-1.32-.863-.365-.36-.657-.794-.872-1.3zm2.192 0c.452.446.99.67 1.616.67.633 0 1.176-.224 1.628-.67.452-.444.678-.975.678-1.593 0-.624-.226-1.16-.678-1.607-.452-.448-.995-.67-1.628-.67-.625 0-1.164.222-1.616.67-.45.447-.677.983-.677 1.607 0 .618.227 1.15.678 1.594zm-.8 10.172v-1.158c0-.096.08-.173.174-.173h4.443c.095 0 .174.077.174.173v1.158c0 .095-.08.174-.175.174h-1.266l-.088 4.965h1.353c.095 0 .174.078.174.173v1.16c0 .094-.08.172-.175.172h-1.57c-.01 0-.018.01-.027.01l-.64-.01h-2.206c-.095 0-.174-.078-.174-.173v-1.16c0-.094.08-.172.174-.172h1.28l.086-4.966h-1.366c-.095 0-.174-.08-.174-.175zm-55.325 3.013V26.474h12.69c7.694 0 11.562 4.216 11.562 10.233 0 3.97-2.658 7.122-6.278 8.8l7.405 9.74h-5.966l-6.13-8.47c-.823.08-4.107.122-5.013.122h-3.168v8.348h-5.102zm11.308-12.852c4.774 0 7.43-2.538 7.43-5.69 0-3.15-2.615-5.566-7.43-5.566h-6.205v11.256h6.206zM163.74 72H0V8.925h75.772L84.742 0l3.423 3.406-10.374 10.32v.014H4.84v53.444h158.9v-19.63h4.84v19.63h56.58V13.74h-56.58v19.63h-4.84V13.74H91.25V8.925H230V72h-66.26zM91.24 55.248V26.474h5.102v14.08l12.303-14.08h6.212l-13.332 15.144 13.99 13.63h-6.378l-12.796-12.32v12.32h-5.102z" class="cls-1"/></svg>