<?xml version="1.0" encoding="utf-8"?>
<!-- Generator: Adobe Illustrator 16.0.0, SVG Export Plug-In . SVG Version: 6.00 Build 0)  -->
<!DOCTYPE svg PUBLIC "-//W3C//DTD SVG 1.1//EN" "http://www.w3.org/Graphics/SVG/1.1/DTD/svg11.dtd">
<svg version="1.1" id="Layer_1" xmlns="http://www.w3.org/2000/svg" xmlns:xlink="http://www.w3.org/1999/xlink" x="0px" y="0px"
	 width="902.68px" height="1026.179px" viewBox="0 0 902.68 1026.179" enable-background="new 0 0 902.68 1026.179"
	 xml:space="preserve">
<g>
	<polygon fill="#BB2727" points="902.68,253.837 451.575,0 0,261.008 451.341,524.441 	"/>
	<polygon fill="#ED3326" points="451.341,524.441 451.341,1026.179 902.68,758.299 902.68,253.837 	"/>
	<polygon fill="#8C191C" points="451.341,524.441 451.341,1026.179 0,758.299 0,261.008 	"/>
	<polygon fill="#949698" points="797.765,316.74 451.575,121.484 451.1,319.238 627.49,419.509 	"/>
	<polygon fill="#C6C7C7" points="629.827,618.836 802.16,718.047 451.341,930.383 108.215,725.738 272.854,618.836 451.341,723.118 
			"/>
	<polygon fill="#DCDEE0" points="272.854,618.836 108.215,725.738 108.215,324.168 451.575,121.484 451.1,319.238 272.854,420.161 	
		"/>
	<g>
		<path fill="#FFFFFF" d="M798.523,459.479H681.495v-43.884h160.913v204.799h-43.885V459.479z M802.16,496.05v43.887H681.495V496.05
			H802.16z M802.16,576.507v43.888H681.495v-43.888H802.16z"/>
	</g>
</g>
</svg>
