<svg xmlns="http://www.w3.org/2000/svg" width="325.601" height="57.697" viewBox="0 0 325.601 57.697">
  <g id="logo-elia" transform="translate(-675.419 -1065.015)">
    <path id="Path_10" data-name="Path 10" d="M697.13,1120.7a16.867,16.867,0,0,0,2.45-1.84c.13-.12.26-.24.39-.37l.26-.29c.21-.22.4-.44.6-.67l.67-.75c7.39-7.97,20.75-7.63,27.81.23a13.905,13.905,0,0,0,24.01-12.32h0c-2.46-11.11-17.29-14.53-24.35-5.56l-.19.21c-7.37,7.98-20.75,7.72-27.81-.14-.07-.07-.13-.14-.19-.21-7.4-8.89-22.16-5.4-24.87,5.7-3.24,12.2,10.22,22.53,21.23,16" fill="#ff6f59"/>
    <path id="Path_11" data-name="Path 11" d="M726.55,1078.61a10.806,10.806,0,0,0-1.11-3.45c-4.1-8.32-16.47-7.83-19.94.75a.354.354,0,0,0-.04.09c-4,9.79,6.86,19.07,15.92,13.6a10.969,10.969,0,0,0,5.16-10.97" fill="#ff6f59"/>
    <path id="Path_12" data-name="Path 12" d="M892.08,1113.95v-.04h-.37a20.539,20.539,0,0,1-20.04-20.53v-24.84h-.1a3.71,3.71,0,0,0-7.41,0h-.08v24.84a28.069,28.069,0,0,0,28.01,28.11v-.1a3.737,3.737,0,0,0,0-7.46h0Z" fill="#1d1d1b"/>
    <path id="Path_13" data-name="Path 13" d="M926.18,1069.21h0v-.03a3.784,3.784,0,0,0-7.54,0v.03h-.05v49.24a4.136,4.136,0,0,0,.82,1.48,3.742,3.742,0,0,0,5.25.66h0a3.971,3.971,0,0,0,1.52-2.1v-49.28h0Z" fill="#1d1d1b"/>
    <path id="Path_14" data-name="Path 14" d="M1001.01,1093.38a27.982,27.982,0,1,0-7.59,19.29v4.46h0v.07a3.8,3.8,0,1,0,7.6,0v-.07h0v-23.75Zm-28.02,20.52a20.47,20.47,0,1,1,20.42-20.52h0a20.569,20.569,0,0,1-20.42,20.53h0Z" fill="#1d1d1b"/>
    <path id="Path_15" data-name="Path 15" d="M843.13,1082.4c-.09-.22-.2-.43-.3-.64a28.038,28.038,0,1,0-25.61,39.74h20.8a3.862,3.862,0,0,0,3.44-3.87,3.738,3.738,0,0,0-3.45-3.72H817.33a27.278,27.278,0,0,1-3.92-.4l29.22-29.22.04-.04a1.945,1.945,0,0,0,.56-1.37,1.625,1.625,0,0,0-.09-.48Zm-9.93.67-.04.04h0l-27.24,27.22a20.41,20.41,0,0,1,11.49-37.36,20.674,20.674,0,0,1,15.91,7.57h0a2.37,2.37,0,0,1,.3.62,1.875,1.875,0,0,1,.1.47,1.98,1.98,0,0,1-.54,1.44h.02Z" fill="#1d1d1b"/>
  </g>
</svg>
