<svg width="282" height="82" viewBox="0 0 282 82" fill="none" xmlns="http://www.w3.org/2000/svg">
    <path
        d="M162.611 37.5993C162.92 37.2899 163.23 37.0579 163.462 36.7485C165.473 34.66 167.639 32.7262 170.578 32.1074C176.457 30.7925 181.407 31.798 184.733 37.4446C185.12 38.0634 185.352 38.1408 185.739 37.522C188.137 34.1185 191.463 32.4942 195.485 31.8754C197.805 31.4886 200.126 31.4113 202.369 32.1848C206.623 33.7318 209.099 36.9805 210.182 41.2348C210.568 42.6271 210.646 44.1741 210.646 45.6438C210.723 52.9148 210.646 60.1857 210.646 67.4567C210.646 68.7716 210.646 68.7716 209.331 68.7716C207.706 68.7716 206.082 68.6943 204.535 68.7716C203.529 68.849 203.22 68.5396 203.22 67.534C203.297 61.1139 203.22 54.7712 203.22 48.3511C203.22 46.1852 202.988 44.0194 202.292 41.931C201.364 39.069 198.656 38.1408 196.336 38.2955C190.302 38.6822 187.286 42.6271 187.054 48.0417C186.744 54.4618 186.899 60.9592 186.822 67.3793C186.822 68.7716 186.822 68.7716 185.429 68.7716C183.805 68.7716 182.181 68.7716 180.479 68.7716C179.628 68.7716 179.396 68.5396 179.396 67.6887C179.396 61.6554 179.473 55.622 179.396 49.5887C179.396 47.5002 179.087 45.3344 178.623 43.2459C177.694 39.1463 174.832 37.5993 170.423 38.4502C167.097 39.069 164.854 41.0801 163.849 44.2515C163.23 46.3399 162.843 48.5058 162.766 50.6716C162.611 56.3182 162.688 61.9648 162.766 67.6114C162.766 68.4622 162.534 68.7716 161.683 68.7716C159.826 68.6943 158.047 68.7716 156.191 68.7716C155.572 68.7716 155.34 68.6169 155.34 67.9208C155.34 56.4729 155.34 45.025 155.34 33.5771C155.34 33.0356 155.495 32.8036 156.036 32.8036C157.815 32.8036 159.594 32.8036 161.373 32.8036C161.992 32.8036 162.224 33.0356 162.224 33.6544C162.224 34.8921 162.224 36.1297 162.224 37.3673C162.379 37.522 162.534 37.5993 162.611 37.5993Z"
        fill="black"/>
    <path
        d="M117.05 47.2684C118.21 43.7103 116.199 39.7654 112.641 38.6825C110.552 38.0637 108.387 37.7543 106.143 38.2184C103.746 38.6825 101.889 39.9201 100.652 42.0086C100.187 42.7821 99.878 42.7821 99.1045 42.3954C97.7122 41.6992 96.3199 41.0804 94.9276 40.3842C94.6182 40.2295 94.2314 39.9975 93.8447 39.8428C94.7729 37.677 96.2425 36.13 98.0216 34.8923C102.121 31.8757 106.762 31.1795 111.713 31.721C115.193 32.1077 118.21 33.4227 120.608 35.8979C122.851 38.2184 124.243 40.9257 124.398 44.1744C124.553 46.2629 124.553 48.274 124.553 50.3625C124.63 56.1638 124.63 62.0424 124.708 67.8437C124.708 68.5399 124.476 68.8493 123.779 68.8493C122 68.7719 120.221 68.7719 118.442 68.8493C117.823 68.8493 117.591 68.6172 117.514 67.9984C117.514 67.1476 117.437 66.3741 117.359 65.5232C117.359 65.1364 117.282 64.7497 117.205 64.4403C117.05 64.3629 116.973 64.2856 116.818 64.2082C116.431 64.7497 116.044 65.3685 115.58 65.8326C111.249 69.9322 104.674 71.2471 99.1045 68.6946C91.1374 64.9817 90.9053 56.0864 95.0823 51.368C97.0934 49.1249 99.8007 48.042 102.74 47.4231C107.149 46.4949 111.481 46.2629 115.89 47.3458C116.354 47.3458 116.663 47.2684 117.05 47.2684ZM109.702 52.2189C107.922 52.4509 106.143 52.683 104.442 53.0697C101.58 53.6885 100.187 55.3129 99.9554 58.1749C99.8007 60.186 101.348 62.3518 103.668 63.3574C105.989 64.3629 108.309 64.2082 110.63 63.28C114.729 61.6557 117.205 58.871 117.746 54.3847C117.823 53.6885 117.591 53.2244 116.818 53.1471C114.42 52.915 112.099 52.5283 109.702 52.2189Z"
        fill="black"/>
    <path
        d="M261.696 62.2744C262.393 62.3517 262.857 62.4291 263.321 62.4291C269.045 62.4291 274.769 62.4291 280.57 62.4291C281.576 62.4291 281.885 62.6611 281.808 63.6667C281.73 65.059 281.73 66.4513 281.808 67.7663C281.885 68.6945 281.576 69.0039 280.647 69.0039C274.227 68.9265 267.884 69.0039 261.464 69.0039C258.834 69.0039 256.205 68.9265 253.575 69.0039C252.646 69.0039 252.337 68.6945 252.414 67.8436C252.492 67.1475 252.492 66.3739 252.414 65.6778C252.105 63.5893 252.956 62.1197 254.348 60.65C260.227 53.9205 266.028 47.1136 271.907 40.3068C272.139 40.0747 272.293 39.7653 272.603 39.3786C272.061 39.3786 271.675 39.3012 271.365 39.3012C265.719 39.3012 260.072 39.3012 254.425 39.3012C253.497 39.3012 253.265 38.9918 253.265 38.141C253.343 36.6713 253.343 35.1243 253.265 33.5773C253.265 32.9585 253.497 32.7264 254.116 32.7264C263.011 32.7264 271.907 32.7264 280.802 32.7264C281.498 32.7264 281.73 32.9585 281.73 33.6546C281.73 35.279 281.73 36.9034 281.73 38.4504C281.73 38.8371 281.498 39.3012 281.266 39.6106C275.078 46.8816 268.813 54.0752 262.547 61.2688C262.315 61.5009 262.083 61.7329 261.696 62.2744Z"
        fill="black"/>
    <path
        d="M226.193 62.3519C233 62.3519 239.497 62.3519 246.149 62.3519C246.149 64.6724 246.149 66.7608 246.149 69.004C245.84 69.004 245.453 69.0814 245.144 69.0814C236.094 69.0814 227.121 69.0814 218.071 69.0814C217.143 69.0814 216.834 68.8493 216.911 67.9211C216.988 66.9155 216.988 65.91 216.911 64.9044C216.756 63.4348 217.298 62.4292 218.226 61.3463C224.337 54.3074 230.37 47.2685 236.481 40.1522C236.635 39.9975 236.713 39.7655 236.945 39.4561C236.403 39.4561 236.094 39.3787 235.707 39.3787C230.06 39.3787 224.414 39.3787 218.767 39.3787C217.916 39.3787 217.607 39.1467 217.607 38.2958C217.684 36.8262 217.607 35.2791 217.607 33.8095C217.607 33.1907 217.762 32.8813 218.458 32.8813C227.353 32.8813 236.249 32.8813 245.144 32.8813C245.84 32.8813 246.072 33.1133 246.072 33.8095C245.995 35.2018 245.995 36.5941 246.072 37.9091C246.149 38.8373 245.763 39.5334 245.221 40.2296C239.111 47.2685 233 54.3847 226.889 61.4237C226.734 61.501 226.58 61.8104 226.193 62.3519Z"
        fill="black"/>
    <path
        d="M90.6749 16.096C89.9014 18.1072 89.2825 20.0409 88.509 21.8973C88.4317 22.1294 87.8129 22.2841 87.5035 22.2841C86.3432 22.2841 85.2603 22.052 84.1001 22.1294C82.553 22.2067 81.3928 23.1349 80.774 24.5273C79.6911 26.8478 79.7684 29.4004 79.8458 31.8756C79.8458 32.6491 80.4646 32.6491 81.0834 32.6491C83.2492 32.6491 85.415 32.7264 87.5808 32.6491C88.4317 32.6491 88.8184 32.8811 88.8184 33.8093C88.7411 35.279 88.8184 36.7487 88.8958 38.2183C88.9731 38.9145 88.6637 39.0692 88.0449 39.0692C85.8018 39.0692 83.5586 39.0692 81.3154 39.0692C79.9231 39.0692 79.8458 39.1465 79.8458 40.6162C79.8458 49.5889 79.8458 58.5615 79.8458 67.6116C79.8458 68.6171 79.6137 68.9265 78.6082 68.9265C76.9064 68.8492 75.2821 68.8492 73.5804 68.9265C72.6522 68.9265 72.4201 68.6171 72.4201 67.7663C72.4201 58.7936 72.4201 49.8209 72.4201 40.7709C72.4201 39.1465 72.4201 39.1465 70.7957 39.1465C69.4808 39.1465 68.1658 39.1465 66.8509 39.1465C66.2321 39.1465 66 38.9918 66 38.2957C66 36.7487 66 35.1243 66 33.5773C66 32.9585 66.2321 32.7264 66.8509 32.7264C68.0885 32.7264 69.3261 32.7264 70.5637 32.5717C71.8786 32.417 72.2654 31.9529 72.3428 30.5606C72.4201 28.7815 72.5748 27.0025 72.6522 25.3008C73.0389 19.9636 78.144 16.0187 82.3983 15.2452C85.183 14.7037 87.8902 15.0905 90.6749 16.096Z"
        fill="black"/>
    <path
        d="M138.322 37.9091C138.477 37.6771 138.632 37.445 138.786 37.213C140.566 33.8869 143.582 32.3399 147.218 31.8758C149.151 31.6437 151.085 31.8758 152.864 32.6493C153.406 32.8813 153.638 33.1134 153.406 33.7322C152.864 35.2792 152.4 36.8262 151.936 38.3732C151.781 38.992 151.549 39.1467 150.853 39.0694C146.676 38.2185 143.195 39.5335 140.256 42.5502C138.554 44.2519 138.245 46.5724 138.168 48.8156C138.09 54.7716 138.168 60.8049 138.09 66.7609C138.09 67.0703 138.09 67.3797 138.09 67.6118C138.168 68.3853 137.858 68.6947 137.085 68.6173C135.383 68.54 133.681 68.54 131.98 68.6173C131.206 68.6173 130.974 68.3853 130.974 67.6118C130.974 63.0481 130.974 58.4844 130.974 53.9207C130.974 47.2685 130.974 40.6937 130.974 34.0416C130.974 33.1134 131.283 32.804 132.212 32.804C133.836 32.8813 135.46 32.804 137.162 32.804C137.858 32.804 138.168 33.036 138.168 33.8095C138.168 35.0471 138.168 36.3621 138.168 37.5997C138.168 37.8318 138.245 37.9091 138.322 37.9091Z"
        fill="black"/>
    <path
        d="M52.8563 15.2678C52.6491 14.0651 51.506 13.2592 50.3016 13.4668L40.2056 15.2147L47.4223 5.68458C48.1588 4.71158 47.968 3.32504 46.9941 2.58817C46.0211 1.8513 44.6354 2.04296 43.8981 3.01596L35.8948 13.5845L34.7535 2.79192C34.6249 1.57848 33.5345 0.700881 32.3232 0.826067C31.1093 0.954706 30.2295 2.04253 30.3573 3.2564L31.7722 16.6361C28.4678 16.2663 25.3102 16.9887 22.3575 18.8632C8.05307 27.9474 2.66835 62.2212 1.01762 76.5347C0.813866 78.2959 1.70441 79.9501 3.2865 80.7487C3.89344 81.0552 4.54052 81.2045 5.18156 81.2045C6.21197 81.2045 7.22598 80.8177 8.02501 80.0709L8.02458 80.0718C34.5506 55.3143 46.8223 37.3204 44.499 26.5898C44.0425 24.4836 42.8402 21.8723 39.9292 19.7484L51.0562 17.8224C52.2588 17.6144 53.0652 16.4704 52.8563 15.2678ZM30.2613 48.5559C29.111 49.0938 24.2634 50.8961 18.4962 46.3277C17.3483 45.4195 15.6812 45.6129 14.7704 46.7594C13.8608 47.9076 14.0542 49.5756 15.2025 50.4856C18.9081 53.4214 22.4326 54.4621 25.369 54.6364C20.7204 60.0982 14.6321 66.5169 6.6635 74.0698C7.1649 70.2038 7.78306 66.2552 8.51582 62.3461C9.84846 63.1307 11.578 63.663 13.8108 63.663C13.9653 63.663 14.1233 63.6604 14.2826 63.6552C15.7468 63.6086 16.8951 62.3835 16.848 60.9192C16.8005 59.455 15.5681 58.3102 14.1116 58.3542C10.7113 58.4405 10.0798 56.7259 9.96367 56.1742C9.94214 56.0464 9.90204 55.9267 9.86346 55.8066C11.3856 49.061 13.2693 42.6598 15.5139 37.2647C15.7487 37.5529 16.0003 37.8397 16.2877 38.1207C18.8156 40.592 22.6191 41.8391 27.6136 41.8391C28.2879 41.8391 28.9855 41.8163 29.7029 41.7709C31.1646 41.6781 32.274 40.4176 32.1816 38.956C32.0892 37.4943 30.846 36.3858 29.3662 36.4769C25.0309 36.754 21.8097 36.0331 20.0683 34.3971C18.6624 33.0761 18.6179 31.5044 18.6166 31.3736C18.6202 31.2303 18.6038 31.0916 18.5853 30.9537C20.5714 27.5255 22.7762 24.8812 25.2014 23.341C26.7977 22.3274 28.4467 21.8223 30.1872 21.8223C31.2707 21.8223 32.3897 22.0183 33.5517 22.4094C36.9007 23.5352 38.7854 25.2697 39.3146 27.7126C39.9807 30.7886 39.0124 36.9472 30.2613 48.5559Z"
        fill="#f1802b"/>
</svg>
