<svg xmlns="http://www.w3.org/2000/svg" width="100%" height="100%" viewBox="0 0 170 30" fill="none" preserveAspectRatio="xMidYMid meet" aria-hidden="true" role="img">
<path d="M57.9137 24.3981V5.23756H70.3217V7.93805H60.9326V13.6991H69.2984V16.3996H60.9326V24.3981H57.9137Z" fill="currentColor"/>
<path d="M71.2865 24.3981V10.4842H74.0495V13.2876L73.7937 12.8761C74.1007 11.9673 74.5953 11.3158 75.2775 10.9214C75.9598 10.5099 76.7784 10.3042 77.7336 10.3042H78.5778V12.9532H77.3754C76.4203 12.9532 75.6442 13.2533 75.0473 13.8534C74.4674 14.4364 74.1774 15.2765 74.1774 16.3739V24.3981H71.2865Z" fill="currentColor"/>
<path d="M86.7212 24.7068C85.3908 24.7068 84.1713 24.3896 83.0627 23.7552C81.9712 23.1208 81.1013 22.2549 80.4532 21.1576C79.8051 20.0602 79.481 18.8171 79.481 17.4283C79.481 16.0224 79.8051 14.7793 80.4532 13.6991C81.1013 12.6017 81.9712 11.7444 83.0627 11.1272C84.1543 10.4928 85.3738 10.1756 86.7212 10.1756C88.0856 10.1756 89.3051 10.4928 90.3796 11.1272C91.4712 11.7444 92.3325 12.6017 92.9635 13.6991C93.6117 14.7793 93.9357 16.0224 93.9357 17.4283C93.9357 18.8343 93.6117 20.0859 92.9635 21.1833C92.3154 22.2806 91.4456 23.1465 90.354 23.7809C89.2625 24.3981 88.0515 24.7068 86.7212 24.7068ZM86.7212 22.0063C87.5398 22.0063 88.2647 21.8091 88.8958 21.4148C89.5268 21.0204 90.0214 20.4803 90.3796 19.7945C90.7548 19.0915 90.9425 18.3028 90.9425 17.4283C90.9425 16.5539 90.7548 15.7737 90.3796 15.0879C90.0214 14.4021 89.5268 13.862 88.8958 13.4676C88.2647 13.0733 87.5398 12.8761 86.7212 12.8761C85.9196 12.8761 85.1947 13.0733 84.5466 13.4676C83.9155 13.862 83.4124 14.4021 83.0371 15.0879C82.679 15.7737 82.4999 16.5539 82.4999 17.4283C82.4999 18.3028 82.679 19.0915 83.0371 19.7945C83.4124 20.4803 83.9155 21.0204 84.5466 21.4148C85.1947 21.8091 85.9196 22.0063 86.7212 22.0063Z" fill="currentColor"/>
<path d="M96.2464 24.3981V10.4842H99.0095V13.2104L98.6769 12.8504C99.018 11.9759 99.5638 11.3158 100.314 10.87C101.065 10.4071 101.935 10.1756 102.924 10.1756C103.947 10.1756 104.851 10.3985 105.636 10.8443C106.42 11.2901 107.034 11.9073 107.478 12.696C107.921 13.4848 108.143 14.3935 108.143 15.4223V24.3981H105.277V16.1938C105.277 15.4908 105.15 14.8993 104.894 14.4192C104.638 13.922 104.271 13.5448 103.794 13.2876C103.333 13.0132 102.804 12.8761 102.207 12.8761C101.61 12.8761 101.073 13.0132 100.596 13.2876C100.135 13.5448 99.777 13.922 99.5211 14.4192C99.2653 14.9164 99.1374 15.508 99.1374 16.1938V24.3981H96.2464Z" fill="currentColor"/>
<path d="M116.712 24.5525C115.262 24.5525 114.136 24.141 113.335 23.318C112.533 22.4949 112.132 21.3376 112.132 19.8459V13.1075H109.702V10.4842H110.086C110.734 10.4842 111.237 10.2956 111.595 9.91841C111.953 9.5412 112.132 9.02682 112.132 8.37527V7.29508H115.023V10.4842H118.17V13.1075H115.023V19.7173C115.023 20.1974 115.1 20.6089 115.253 20.9518C115.407 21.2776 115.654 21.5348 115.995 21.7234C116.336 21.8948 116.78 21.9806 117.326 21.9806C117.462 21.9806 117.616 21.972 117.786 21.9548C117.957 21.9377 118.119 21.9206 118.272 21.9034V24.3981C118.033 24.4324 117.769 24.4667 117.479 24.501C117.189 24.5353 116.933 24.5525 116.712 24.5525Z" fill="currentColor"/>
<path d="M120.582 24.3981V4.92894H123.473V24.3981H120.582Z" fill="currentColor"/>
<path d="M132.839 24.7068C131.458 24.7068 130.23 24.3896 129.155 23.7552C128.098 23.1036 127.271 22.2292 126.674 21.1318C126.077 20.0174 125.778 18.7743 125.778 17.4026C125.778 15.9966 126.077 14.7536 126.674 13.6734C127.288 12.5932 128.106 11.7444 129.13 11.1272C130.153 10.4928 131.313 10.1756 132.609 10.1756C133.649 10.1756 134.579 10.3556 135.398 10.7157C136.216 11.0758 136.907 11.573 137.47 12.2074C138.033 12.8246 138.459 13.5362 138.749 14.3421C139.056 15.1479 139.21 16.0052 139.21 16.9139C139.21 17.1368 139.201 17.3683 139.184 17.6084C139.167 17.8484 139.133 18.0713 139.082 18.277H128.055V15.9623H137.444L136.063 17.0168C136.233 16.1767 136.174 15.4308 135.884 14.7793C135.611 14.1106 135.184 13.5876 134.605 13.2104C134.042 12.8161 133.377 12.6189 132.609 12.6189C131.842 12.6189 131.159 12.8161 130.562 13.2104C129.965 13.5876 129.505 14.1363 129.181 14.8564C128.857 15.5594 128.729 16.4167 128.797 17.4283C128.712 18.3713 128.84 19.1944 129.181 19.8973C129.539 20.6003 130.034 21.149 130.665 21.5433C131.313 21.9377 132.046 22.1349 132.865 22.1349C133.701 22.1349 134.408 21.9463 134.988 21.5691C135.585 21.1919 136.054 20.7032 136.395 20.1031L138.749 21.2604C138.476 21.912 138.05 22.5035 137.47 23.035C136.907 23.5494 136.225 23.9609 135.423 24.2696C134.639 24.561 133.777 24.7068 132.839 24.7068Z" fill="currentColor"/>
<path d="M145.539 24.7068C144.601 24.7068 143.774 24.5439 143.057 24.2181C142.358 23.8752 141.812 23.4123 141.42 22.8293C141.028 22.2292 140.832 21.5262 140.832 20.7203C140.832 19.9659 140.994 19.2887 141.318 18.6885C141.659 18.0884 142.179 17.5826 142.878 17.1711C143.578 16.7596 144.456 16.4682 145.513 16.2967L150.323 15.4994V17.7884L146.076 18.5342C145.309 18.6714 144.746 18.92 144.388 19.2801C144.029 19.623 143.85 20.0688 143.85 20.6175C143.85 21.149 144.047 21.5862 144.439 21.9291C144.848 22.2549 145.368 22.4178 145.999 22.4178C146.784 22.4178 147.466 22.2463 148.046 21.9034C148.643 21.5605 149.104 21.1061 149.428 20.5403C149.752 19.9573 149.914 19.3144 149.914 18.6114V15.0365C149.914 14.3506 149.658 13.7934 149.146 13.3647C148.652 12.9189 147.986 12.696 147.151 12.696C146.383 12.696 145.709 12.9018 145.13 13.3133C144.567 13.7077 144.149 14.222 143.876 14.8564L141.471 13.6476C141.727 12.9618 142.145 12.3617 142.725 11.8473C143.305 11.3158 143.978 10.9043 144.746 10.6128C145.53 10.3213 146.358 10.1756 147.227 10.1756C148.319 10.1756 149.283 10.3813 150.118 10.7928C150.971 11.2044 151.628 11.7787 152.088 12.516C152.566 13.2361 152.805 14.0763 152.805 15.0365V24.3981H150.042V21.8777L150.63 21.9548C150.306 22.5207 149.888 23.0093 149.376 23.4208C148.882 23.8323 148.31 24.1495 147.662 24.3724C147.031 24.5953 146.323 24.7068 145.539 24.7068Z" fill="currentColor"/>
<path d="M155.673 29.5419V10.4842H158.436V13.3647L158.104 12.696C158.615 11.9073 159.298 11.2901 160.15 10.8443C161.003 10.3985 161.975 10.1756 163.067 10.1756C164.38 10.1756 165.557 10.4928 166.597 11.1272C167.655 11.7616 168.482 12.6275 169.079 13.7248C169.693 14.8221 170 16.0566 170 17.4283C170 18.8 169.693 20.0345 169.079 21.1318C168.482 22.2292 167.663 23.1036 166.623 23.7552C165.583 24.3896 164.397 24.7068 163.067 24.7068C161.992 24.7068 161.012 24.4839 160.125 24.0381C159.255 23.5923 158.581 22.9493 158.104 22.1092L158.564 21.5691V29.5419H155.673ZM162.785 22.0063C163.604 22.0063 164.329 21.8091 164.96 21.4148C165.591 21.0204 166.086 20.4803 166.444 19.7945C166.819 19.0915 167.007 18.3028 167.007 17.4283C167.007 16.5539 166.819 15.7737 166.444 15.0879C166.086 14.4021 165.591 13.862 164.96 13.4676C164.329 13.0733 163.604 12.8761 162.785 12.8761C161.984 12.8761 161.259 13.0733 160.611 13.4676C159.98 13.862 159.477 14.4021 159.101 15.0879C158.743 15.7737 158.564 16.5539 158.564 17.4283C158.564 18.3028 158.743 19.0915 159.101 19.7945C159.477 20.4803 159.98 21.0204 160.611 21.4148C161.259 21.8091 161.984 22.0063 162.785 22.0063Z" fill="currentColor"/>
<path fill-rule="evenodd" clip-rule="evenodd" d="M26.008 29.297C24.8154 29.6083 23.5645 29.774 22.2751 29.774C20.9855 29.774 19.7345 29.6083 18.5419 29.2969C17.3492 29.6083 16.0982 29.774 14.8087 29.774C6.63006 29.774 0 23.1089 0 14.887C0 6.66514 6.63006 0 14.8087 0C16.0982 0 17.3492 0.1657 18.5419 0.477076C19.7345 0.1657 20.9855 0 22.2751 0C23.5645 0 24.8154 0.165671 26.008 0.476993C27.2005 0.165671 28.4514 0 29.7409 0C37.9194 0 44.5495 6.66514 44.5495 14.887C44.5495 23.1089 37.9194 29.774 29.7409 29.774C28.4514 29.774 27.2005 29.6083 26.008 29.297ZM29.6794 2.48132C22.8922 2.51459 17.4003 8.05606 17.4003 14.887C17.4003 21.7177 22.8918 27.2591 29.6788 27.2927C29.9587 27.2913 30.2364 27.2806 30.5116 27.2608C30.5071 27.2638 30.5025 27.2668 30.498 27.2699C36.9609 26.8766 42.0814 21.483 42.0814 14.887C42.0814 8.29105 36.9609 2.89739 30.498 2.50414C30.5025 2.50717 30.507 2.51021 30.5116 2.51325C30.2366 2.49345 29.9591 2.48271 29.6794 2.48132ZM21.5179 2.50414C15.055 2.89739 9.93454 8.29105 9.93454 14.887C9.93454 21.483 15.055 26.8766 21.5179 27.2699C17.547 24.5996 14.9322 20.0503 14.9322 14.887C14.9322 9.72372 17.547 5.17437 21.5179 2.50414ZM2.46811 14.887C2.46811 8.29081 7.58899 2.89699 14.0522 2.50409C10.0812 5.17432 7.46643 9.72369 7.46643 14.887C7.46643 20.0503 10.0812 24.5997 14.0522 27.2699C7.58899 26.877 2.46811 21.4832 2.46811 14.887Z" fill="currentColor"/>
</svg>
