<svg xmlns="http://www.w3.org/2000/svg" viewBox="0 0 403.11 121.42"><defs><style>.cls-1{fill:#1a1a1a;}.cls-2{fill:#0277bd;}</style></defs><title>logo_2</title><g id="Layer_2" data-name="Layer 2"><g id="Layer_1-2" data-name="Layer 1"><path class="cls-1" d="M384.72,72.38a14.9,14.9,0,0,1-4.23,4.11A15.45,15.45,0,0,1,369,78.58a14.88,14.88,0,0,1-5.46-2.34,15.66,15.66,0,0,1-4.29-4.56,16.74,16.74,0,0,1-1.55-3.21h0l45.37-8.28-.59-3.26v0a2.4,2.4,0,0,0,0-.24,32.79,32.79,0,0,0-4.54-11.91,29.39,29.39,0,0,0-8.1-8.53A29.73,29.73,0,0,0,379,31.64a34.57,34.57,0,0,0-24.54,4.48,28.86,28.86,0,0,0-13,18.94,32.86,32.86,0,0,0,0,12.74,34.23,34.23,0,0,0,.88,3.49l.27.92A31.59,31.59,0,0,0,346,79.7a28.92,28.92,0,0,0,18.89,13.11,34.61,34.61,0,0,0,24.55-4.48,29.5,29.5,0,0,0,8.47-8.09,27.59,27.59,0,0,0,2.55-4.61l-14-6.61A14.61,14.61,0,0,1,384.72,72.38ZM359.17,52.07A14.78,14.78,0,0,1,363.4,48a15.45,15.45,0,0,1,11.45-2.09,14.88,14.88,0,0,1,5.46,2.34,15.72,15.72,0,0,1,4.14,4.36l-27.61,5A15.47,15.47,0,0,1,359.17,52.07ZM313.31,15.63V34.8a30.34,30.34,0,0,0-2.93-1.39,34.56,34.56,0,0,0-24.95,0A28.93,28.93,0,0,0,269.2,49.7a33,33,0,0,0-2.32,12.53,33,33,0,0,0,2.32,12.53,28.93,28.93,0,0,0,16.23,16.29,34.56,34.56,0,0,0,24.95,0,30.29,30.29,0,0,0,2.93-1.38v3.7h15.63V0A15.63,15.63,0,0,0,313.31,15.63Zm-1.26,53.64a15.62,15.62,0,0,1-3.4,5.25,14.79,14.79,0,0,1-4.95,3.29,15.46,15.46,0,0,1-5.79,1.13,15.28,15.28,0,0,1-5.85-1.13,14.85,14.85,0,0,1-4.89-3.29,15.32,15.32,0,0,1-3.4-5.25,20.3,20.3,0,0,1,0-14.08,15.32,15.32,0,0,1,3.4-5.25,14.82,14.82,0,0,1,4.89-3.28,15.1,15.1,0,0,1,5.85-1.14,15.28,15.28,0,0,1,5.79,1.14,14.76,14.76,0,0,1,4.95,3.28,15.62,15.62,0,0,1,3.4,5.25,20.3,20.3,0,0,1,0,14.08ZM247.32,39.85a29.62,29.62,0,0,0-9.79-6.44,34.53,34.53,0,0,0-24.94,0,29.62,29.62,0,0,0-9.79,6.44,29.33,29.33,0,0,0-6.44,9.85A32.84,32.84,0,0,0,194,62.23a32.89,32.89,0,0,0,2.33,12.54,29.28,29.28,0,0,0,6.44,9.84,29.65,29.65,0,0,0,9.79,6.45,34.67,34.67,0,0,0,24.94,0,28.93,28.93,0,0,0,16.23-16.29,32.89,32.89,0,0,0,2.33-12.54,32.84,32.84,0,0,0-2.33-12.53A29.48,29.48,0,0,0,247.32,39.85ZM239.2,69.27a15.61,15.61,0,0,1-3.4,5.26,14.91,14.91,0,0,1-5,3.28,15.55,15.55,0,0,1-11.64,0,15,15,0,0,1-4.89-3.28,15.46,15.46,0,0,1-3.4-5.26,20.3,20.3,0,0,1,0-14.08,15.32,15.32,0,0,1,3.4-5.25,14.82,14.82,0,0,1,4.89-3.28,15.43,15.43,0,0,1,11.64,0,14.76,14.76,0,0,1,5,3.28,15.47,15.47,0,0,1,3.4,5.25,20.3,20.3,0,0,1,0,14.08ZM102,15.63V93.37a15.64,15.64,0,0,0,15.64-15.64V0A15.63,15.63,0,0,0,102,15.63ZM74,47.06v46.2a16,16,0,0,0,16-16V31.1A16,16,0,0,0,74,47.06Zm71.48,11.57h0a16.89,16.89,0,0,1,.95-3.44,15.62,15.62,0,0,1,3.4-5.25,14.76,14.76,0,0,1,4.95-3.28,15.28,15.28,0,0,1,5.79-1.14,15,15,0,0,1,10.75,4.42,14.73,14.73,0,0,1,2.24,3l12.61-9a28.36,28.36,0,0,0-3.34-4.07,29.58,29.58,0,0,0-9.78-6.44,34.56,34.56,0,0,0-25,0A28.85,28.85,0,0,0,131.91,49.7a31.25,31.25,0,0,0-2,8l-.09,1a32.27,32.27,0,0,0-.25,3.59h0a32.27,32.27,0,0,0,.25,3.59l.09,1a31.25,31.25,0,0,0,2,8A28.85,28.85,0,0,0,148.14,91a34.56,34.56,0,0,0,25,0,29.58,29.58,0,0,0,9.78-6.44,28.36,28.36,0,0,0,3.34-4.07l-12.61-9a14.73,14.73,0,0,1-2.24,3,15,15,0,0,1-10.75,4.42,15.28,15.28,0,0,1-5.79-1.14,14.76,14.76,0,0,1-4.95-3.28,15.62,15.62,0,0,1-3.4-5.25,16.89,16.89,0,0,1-.95-3.44h0v0a21.7,21.7,0,0,1,0-7.15ZM46.43,34.8a30.34,30.34,0,0,0-2.93-1.39A32.54,32.54,0,0,0,31,31.08a32.58,32.58,0,0,0-12.47,2.33A28.85,28.85,0,0,0,2.33,49.7,32.84,32.84,0,0,0,0,62.23,32.89,32.89,0,0,0,2.33,74.77,28.87,28.87,0,0,0,18.56,91.05,32.39,32.39,0,0,0,31,93.38,32.35,32.35,0,0,0,43.5,91.05a30.73,30.73,0,0,0,2.89-1.36c0,.2,0,.38,0,.58a18.56,18.56,0,0,1-1.26,7,15.47,15.47,0,0,1-3.4,5.25,14.69,14.69,0,0,1-5,3.29,15.55,15.55,0,0,1-11.64,0A14.47,14.47,0,0,1,18,99.56l-12.61,9a28.48,28.48,0,0,0,3.34,4.07,29.62,29.62,0,0,0,9.79,6.44A32.39,32.39,0,0,0,31,121.42a32.35,32.35,0,0,0,12.47-2.33A28.85,28.85,0,0,0,59.73,102.8a32.8,32.8,0,0,0,2.33-12.53V31.1H46.43ZM45.17,69.27a15.47,15.47,0,0,1-3.4,5.25,14.69,14.69,0,0,1-5,3.29,15.55,15.55,0,0,1-11.64,0,14.85,14.85,0,0,1-4.89-3.29,15.47,15.47,0,0,1-3.4-5.25,20.3,20.3,0,0,1,0-14.08,15.47,15.47,0,0,1,3.4-5.25,14.82,14.82,0,0,1,4.89-3.28,15.43,15.43,0,0,1,11.64,0,14.66,14.66,0,0,1,5,3.28,15.47,15.47,0,0,1,3.4,5.25,20.3,20.3,0,0,1,0,14.08ZM82,7.69a8,8,0,1,0,8,8A8,8,0,0,0,82,7.69Z"/><rect class="cls-2" x="368.06" y="81.06" width="7.98" height="52.67" transform="translate(264.66 479.45) rotate(-90)"/></g></g></svg>