<svg width="296" height="301" viewBox="0 0 296 301" fill="none" xmlns="http://www.w3.org/2000/svg">
<path d="M183.374 4.34703C183.843 4.46161 184.307 4.57098 184.77 4.68036C192.906 6.60223 201.296 9.41994 208.781 13.1439C209.374 13.4356 209.973 13.722 210.572 13.9981C221.744 19.2272 232.265 25.8522 241.703 33.8054L242.453 34.4252C244.109 35.8106 245.713 37.2429 247.296 38.7116C247.807 39.1752 248.322 39.6335 248.838 40.0918C250.114 41.2429 251.338 42.4408 252.546 43.6595L253.166 44.2741C254.223 45.3314 255.244 46.4043 256.218 47.5397C256.718 48.1179 257.234 48.6804 257.755 49.2377C258.718 50.2949 259.64 51.3783 260.536 52.4929C260.989 53.0554 261.447 53.6074 261.906 54.1543C264.999 57.847 267.828 61.722 270.505 65.722L270.822 66.2012C272.749 69.097 274.52 72.0762 276.265 75.0814L276.666 75.7689C278.63 79.1439 280.416 82.5658 282.026 86.1231L282.401 86.9512C289.307 102.311 293.64 118.628 295.286 135.383L295.343 135.998C295.76 140.279 295.994 144.566 295.989 148.868V149.399C295.947 169.222 292.234 189.029 282.026 213.805L281.583 214.764C277.609 223.41 272.76 231.566 267.145 239.243L266.812 239.696C263.578 244.118 260.124 248.602 256.15 252.389C255.703 252.842 255.291 253.305 254.88 253.785C253.791 255.04 252.614 256.206 251.437 257.378L250.781 258.04C249.687 259.128 248.583 260.191 247.411 261.196C246.786 261.732 246.192 262.295 245.588 262.852C244.489 263.868 243.354 264.842 242.187 265.779C241.656 266.212 241.124 266.644 240.598 267.081C238.411 268.889 236.161 270.581 233.843 272.222C233.317 272.597 232.791 272.972 232.265 273.347C228.447 276.081 224.494 278.545 220.437 280.91C219.963 281.186 219.494 281.467 219.025 281.748C217.302 282.779 215.525 283.686 213.718 284.561C213.104 284.863 212.489 285.17 211.874 285.477C204.869 288.956 197.567 291.722 190.104 294.055C189.65 294.196 189.197 294.337 188.744 294.482C181.249 296.831 173.416 298.279 165.624 299.243L164.687 299.363C153.812 300.665 142.171 300.561 131.302 299.243L130.411 299.144C114.281 297.295 98.8797 292.248 84.2651 285.326L83.4161 284.925C75.9734 281.373 68.7078 277.071 62.187 272.014C61.4578 271.456 60.713 270.92 59.9734 270.383C58.1661 269.066 56.4109 267.712 54.7182 266.243C54.0672 265.68 53.3953 265.133 52.7182 264.592C51.5151 263.618 50.3797 262.576 49.2547 261.508C48.562 260.863 47.8693 260.227 47.1505 259.613C45.8849 258.508 44.7026 257.326 43.5151 256.139C43.1193 255.748 42.7286 255.357 42.3328 254.967C40.9318 253.571 39.6193 252.154 38.3901 250.597C37.9943 250.102 37.562 249.639 37.1036 249.201C36.1193 248.248 35.2807 247.186 34.4213 246.118C34.0828 245.696 33.739 245.279 33.3901 244.863C28.1193 238.477 23.5099 231.581 19.463 224.363L18.7651 223.133C17.0932 220.175 15.614 217.128 14.1818 214.045L13.8849 213.394C8.39529 201.446 4.39529 188.602 2.18175 175.644L2.05675 174.91C0.796335 167.482 0.119251 159.894 0.0255013 152.363L0.0150846 151.701C-0.0109567 150.243 -0.000541362 148.785 0.0255013 147.326L0.0307096 146.618C0.374459 124.602 5.76508 102.441 18.0255 78.2012L18.3015 77.6856C22.6505 69.5762 27.838 61.8366 33.6245 54.6856L34.0255 54.1856C35.5776 52.2741 37.1349 50.3887 38.812 48.5866C39.2651 48.0918 39.7078 47.5918 40.1453 47.0814C41.0307 46.0658 41.9682 45.1022 42.9213 44.1491L43.4422 43.6231C43.8068 43.2585 44.1661 42.8939 44.5307 42.5293C45.0828 41.9824 45.6245 41.4304 46.1713 40.8783C47.8276 39.222 49.4682 37.597 51.3172 36.1543C51.9109 35.6856 52.463 35.1856 53.0203 34.6752C54.489 33.3366 56.0463 32.1283 57.6245 30.9252L58.0724 30.5814C70.8484 20.8002 85.2703 12.8887 100.583 7.88348L101.374 7.62307C110.291 4.71682 119.385 2.74286 128.666 1.40432L129.359 1.30015C147.197 -1.26756 165.921 0.0814002 183.374 4.34703Z" fill="black"/>
<path d="M183.374 4.34703C183.843 4.46161 184.307 4.57098 184.77 4.68036C192.906 6.60223 201.296 9.41994 208.781 13.1439C209.374 13.4356 209.973 13.722 210.572 13.9981C221.744 19.2272 232.265 25.8522 241.703 33.8054L242.453 34.4252C244.109 35.8106 245.713 37.2429 247.296 38.7116C247.807 39.1752 248.322 39.6335 248.838 40.0918C250.114 41.2429 251.338 42.4408 252.546 43.6595L253.166 44.2741C254.223 45.3314 255.244 46.4043 256.218 47.5397C256.718 48.1179 257.234 48.6804 257.755 49.2377C258.718 50.2949 259.64 51.3783 260.536 52.4929C260.989 53.0554 261.447 53.6074 261.906 54.1543C264.999 57.847 267.828 61.722 270.505 65.722L270.822 66.2012C272.749 69.097 274.52 72.0762 276.265 75.0814L276.666 75.7689C278.63 79.1439 280.416 82.5658 282.026 86.1231L282.401 86.9512C289.307 102.311 293.64 118.628 295.286 135.383L295.343 135.998C295.76 140.279 295.994 144.566 295.989 148.868V149.399C295.947 169.222 292.234 189.029 282.026 213.805L281.583 214.764C277.609 223.41 272.76 231.566 267.145 239.243L266.812 239.696C263.578 244.118 260.124 248.602 256.15 252.389C255.703 252.842 255.291 253.305 254.88 253.785C253.791 255.04 252.614 256.206 251.437 257.378L250.781 258.04C249.687 259.128 248.583 260.191 247.411 261.196C246.786 261.732 246.192 262.295 245.588 262.852C244.489 263.868 243.354 264.842 242.187 265.779C241.656 266.212 241.124 266.644 240.598 267.081C238.411 268.889 236.161 270.581 233.843 272.222C233.317 272.597 232.791 272.972 232.265 273.347C228.447 276.081 224.494 278.545 220.437 280.91C219.963 281.186 219.494 281.467 219.025 281.748C217.302 282.779 215.525 283.686 213.718 284.561C213.104 284.863 212.489 285.17 211.874 285.477C204.869 288.956 197.567 291.722 190.104 294.055C189.65 294.196 189.197 294.337 188.744 294.482C181.249 296.831 173.416 298.279 165.624 299.243L164.687 299.363C153.812 300.665 142.171 300.561 131.302 299.243L130.411 299.144C114.281 297.295 98.8797 292.248 84.2651 285.326L83.4161 284.925C75.9734 281.373 68.7078 277.071 62.187 272.014C61.4578 271.456 60.713 270.92 59.9734 270.383C58.1661 269.066 56.4109 267.712 54.7182 266.243C54.0672 265.68 53.3953 265.133 52.7182 264.592C51.5151 263.618 50.3797 262.576 49.2547 261.508C48.562 260.863 47.8693 260.227 47.1505 259.613C45.8849 258.508 44.7026 257.326 43.5151 256.139C43.1193 255.748 42.7286 255.357 42.3328 254.967C40.9318 253.571 39.6193 252.154 38.3901 250.597C37.9943 250.102 37.562 249.639 37.1036 249.201C36.1193 248.248 35.2807 247.186 34.4213 246.118C34.0828 245.696 33.739 245.279 33.3901 244.863C28.1193 238.477 23.5099 231.581 19.463 224.363L18.7651 223.133C17.0932 220.175 15.614 217.128 14.1818 214.045L13.8849 213.394C8.39529 201.446 4.39529 188.602 2.18175 175.644L2.05675 174.91C0.796335 167.482 0.119251 159.894 0.0255013 152.363L0.0150846 151.701C-0.0109567 150.243 -0.000541362 148.785 0.0255013 147.326L0.0307096 146.618C0.374459 124.602 5.76508 102.441 18.0255 78.2012L18.3015 77.6856C22.6505 69.5762 27.838 61.8366 33.6245 54.6856L34.0255 54.1856C35.5776 52.2741 37.1349 50.3887 38.812 48.5866C39.2651 48.0918 39.7078 47.5918 40.1453 47.0814C41.0307 46.0658 41.9682 45.1022 42.9213 44.1491L43.4422 43.6231C43.8068 43.2585 44.1661 42.8939 44.5307 42.5293C45.0828 41.9824 45.6245 41.4304 46.1713 40.8783C47.8276 39.222 49.4682 37.597 51.3172 36.1543C51.9109 35.6856 52.463 35.1856 53.0203 34.6752C54.489 33.3366 56.0463 32.1283 57.6245 30.9252L58.0724 30.5814C70.8484 20.8002 85.2703 12.8887 100.583 7.88348L101.374 7.62307C110.291 4.71682 119.385 2.74286 128.666 1.40432L129.359 1.30015C147.197 -1.26756 165.921 0.0814002 183.374 4.34703ZM143.937 13.9616L143.312 13.9877C122.666 14.8731 102.734 19.5606 84.5047 29.4824L83.6974 29.9199C78.8276 32.5502 74.0672 35.2845 69.6245 38.6022L69.1505 38.9564C65.7078 41.5345 62.3484 44.2168 59.2026 47.1491C58.6713 47.6439 58.1297 48.1231 57.5776 48.5918C56.6818 49.3679 55.8536 50.2064 55.0203 51.0554C54.5776 51.4877 54.114 51.9043 53.6349 52.3002C53.0463 52.7897 52.5463 53.3054 52.0463 53.8835C51.1609 54.9095 50.2338 55.8939 49.2963 56.8731C46.7443 59.571 44.364 62.3835 42.0932 65.3262C41.8068 65.696 41.5151 66.0658 41.2182 66.4356C37.7599 70.8366 34.7443 75.5189 31.9422 80.3627L31.6088 80.9408C30.9005 82.1804 30.2182 83.4252 29.5463 84.6856L29.1609 85.3991C21.088 100.514 16.1245 116.878 14.0099 133.857C13.9474 134.337 13.8849 134.811 13.8224 135.29C12.0932 148.915 12.9943 163.16 15.6245 176.602L15.7286 177.139C18.062 189.024 22.088 200.514 27.3849 211.404L27.5984 211.842C30.8745 218.602 34.7234 225.014 39.1453 231.081L39.4578 231.514C40.062 232.337 40.6765 233.154 41.3015 233.962L41.6088 234.357C43.812 237.217 46.114 239.972 48.5776 242.618C49.0568 243.139 49.5255 243.67 49.9838 244.212C51.0724 245.456 52.239 246.613 53.4109 247.779L54.0672 248.441C55.1609 249.535 56.2703 250.597 57.4474 251.607C58.0255 252.102 58.5776 252.618 59.1401 253.133C60.437 254.316 61.7755 255.425 63.1453 256.524L63.9526 257.18C67.489 260.055 71.1713 262.706 74.963 265.238L75.4161 265.54C77.4734 266.915 79.5672 268.227 81.7026 269.488C82.0672 269.701 82.437 269.92 82.8015 270.139C83.3901 270.488 83.9734 270.837 84.562 271.18L85.1557 271.529L85.7234 271.863L86.2182 272.154C86.6922 272.415 86.6922 272.415 87.3849 272.363V170.123C93.0932 171.196 93.0932 171.196 95.2807 173.008C96.8172 174.451 97.8015 176.029 98.4265 178.045C98.6609 179.014 98.6974 179.925 98.6974 180.925V181.43C98.7026 181.993 98.7026 182.555 98.7026 183.113L98.7078 184.331C98.7078 185.451 98.713 186.566 98.713 187.68C98.713 188.883 98.7182 190.087 98.7182 191.295C98.7234 193.378 98.7286 195.462 98.7338 197.55C98.739 200.566 98.7443 203.581 98.7547 206.597C98.7651 211.488 98.7755 216.378 98.7859 221.274C98.8015 227.79 98.812 234.305 98.8276 240.826C98.8536 253.019 98.8797 265.212 98.9057 277.404C99.2859 277.597 99.6661 277.79 100.046 277.982L100.687 278.305C101.479 278.686 102.265 278.988 103.088 279.279L103.567 279.451C103.89 279.566 104.218 279.68 104.546 279.795C105.041 279.967 105.536 280.144 106.026 280.321C106.348 280.436 106.671 280.55 106.989 280.66L107.854 280.967C108.52 281.175 109.197 281.352 109.88 281.503L110.463 281.628L110.906 281.722V281.061C110.911 266.54 110.932 252.019 110.953 237.498V236.555C110.963 231.54 110.968 226.519 110.968 221.503C110.973 216.352 110.979 211.206 110.989 206.055C110.994 202.878 110.999 199.701 110.999 196.524C110.999 194.347 110.999 192.165 111.01 189.988C111.01 188.732 111.015 187.472 111.01 186.217C111.01 185.066 111.01 183.915 111.015 182.758C111.02 182.347 111.02 181.93 111.015 181.514C111.005 179.092 111.156 176.962 112.104 174.686C112.822 173.514 113.739 172.618 114.895 171.878C116.64 170.962 118.203 170.758 120.161 170.774C121.749 170.904 123.177 171.472 124.526 172.316C125.572 173.144 126.38 174.217 126.984 175.404C127.869 177.696 127.807 180.024 127.796 182.441C127.802 182.889 127.802 183.331 127.802 183.779C127.807 184.998 127.807 186.217 127.807 187.436C127.802 188.753 127.807 190.071 127.812 191.389C127.817 193.67 127.817 195.946 127.817 198.227C127.817 201.524 127.822 204.821 127.828 208.118C127.838 214.764 127.848 221.41 127.848 228.055L127.854 228.54C127.854 232.279 127.859 236.014 127.864 239.753C127.869 245.107 127.88 250.462 127.885 255.816C127.89 259.41 127.895 263.003 127.895 266.592C127.901 268.847 127.901 271.097 127.906 273.347C127.906 274.649 127.906 275.951 127.906 277.253C127.906 278.441 127.906 279.628 127.911 280.816C127.911 281.248 127.911 281.68 127.911 282.113C127.911 282.696 127.911 283.279 127.911 283.863V284.383C127.911 284.774 127.927 285.17 127.942 285.566L128.182 285.805C128.885 285.93 129.583 286.045 130.286 286.149L130.927 286.243C132.515 286.472 134.104 286.654 135.697 286.811L136.328 286.868C137.458 286.972 138.567 287.008 139.703 287.003V286.305C139.713 270.837 139.729 255.368 139.755 239.894C139.76 234.607 139.765 229.316 139.77 224.029C139.77 218.436 139.781 212.847 139.791 207.253C139.796 203.904 139.796 200.555 139.796 197.212C139.796 194.915 139.802 192.618 139.807 190.321C139.812 188.998 139.812 187.67 139.812 186.347C139.807 185.133 139.812 183.92 139.817 182.706C139.817 182.269 139.817 181.831 139.817 181.389C139.807 179.087 139.817 177.024 140.906 174.925C141.77 173.493 142.817 172.42 144.265 171.566C145.776 170.79 147.296 170.732 148.979 170.779C150.338 170.889 151.343 171.196 152.505 171.91C153.843 172.868 154.765 173.956 155.546 175.404C156.218 177.014 156.302 178.696 156.296 180.425L156.302 180.988C156.302 181.607 156.302 182.222 156.302 182.842L156.307 184.191C156.307 185.425 156.312 186.66 156.312 187.889C156.312 189.222 156.317 190.55 156.322 191.878C156.328 194.186 156.333 196.488 156.333 198.79C156.338 202.123 156.348 205.456 156.354 208.785C156.364 214.191 156.374 219.592 156.385 224.998C156.395 232.04 156.411 239.076 156.427 246.118C156.453 259.743 156.479 273.373 156.505 287.003C156.885 287.003 157.265 287.008 157.645 287.008H158.286C159.619 286.998 160.947 286.847 162.276 286.722C162.791 286.675 163.307 286.628 163.822 286.581L164.822 286.488L165.729 286.404C166.609 286.279 167.411 286.055 168.265 285.805V285.113C168.276 270.003 168.296 254.899 168.328 239.795V239.305C168.338 234.081 168.343 228.863 168.348 223.639C168.354 218.123 168.359 212.602 168.369 207.087C168.38 203.779 168.38 200.472 168.385 197.17C168.385 194.904 168.39 192.639 168.395 190.368C168.401 189.061 168.401 187.753 168.401 186.446C168.401 185.248 168.401 184.05 168.406 182.852C168.406 182.42 168.406 181.988 168.406 181.555C168.401 179.113 168.437 176.904 169.593 174.696C170.515 173.404 171.421 172.337 172.822 171.566C174.604 170.758 176.421 170.67 178.343 170.842C179.874 171.113 181.119 171.842 182.354 172.764C183.255 173.55 183.833 174.321 184.343 175.404C185.124 177.956 185.166 180.446 185.161 183.087C185.161 183.514 185.161 183.941 185.166 184.373C185.171 185.54 185.166 186.712 185.166 187.878C185.166 189.144 185.171 190.404 185.177 191.67C185.182 193.857 185.182 196.045 185.187 198.232C185.187 201.394 185.192 204.555 185.197 207.717C185.208 212.847 185.218 217.977 185.223 223.107C185.223 228.092 185.234 233.076 185.239 238.055L185.244 238.988L185.249 243.613C185.275 256.399 185.291 269.18 185.302 281.962C185.65 281.889 185.994 281.816 186.338 281.738L186.916 281.613C187.604 281.451 188.265 281.238 188.932 281.008L189.713 280.732L190.525 280.451L191.359 280.154C194.552 279.269 194.552 279.269 197.302 277.644C197.38 276.925 197.38 276.925 197.364 276.061L197.369 275.561C197.369 274.998 197.369 274.441 197.364 273.878L197.369 272.67C197.369 271.555 197.369 270.446 197.369 269.331C197.369 268.133 197.369 266.936 197.374 265.738C197.374 263.66 197.38 261.581 197.38 259.503C197.38 256.493 197.38 253.488 197.385 250.477C197.395 245.597 197.4 240.712 197.406 235.826V234.941C197.411 230.206 197.411 225.467 197.416 220.732C197.416 215.868 197.421 211.003 197.432 206.144C197.437 203.144 197.437 200.144 197.437 197.144C197.437 195.087 197.442 193.035 197.442 190.977C197.447 189.79 197.447 188.602 197.447 187.415C197.442 186.326 197.447 185.243 197.453 184.154C197.453 183.764 197.453 183.368 197.447 182.977C197.437 180.337 197.604 177.873 198.791 175.462C199.739 173.894 201.109 172.524 202.692 171.587C204.541 170.79 206.614 170.451 208.583 170.123V272.602C209.609 272.399 210.093 272.238 210.958 271.732L211.645 271.331L212.38 270.894C212.635 270.743 212.885 270.592 213.145 270.441C217.244 268.008 221.275 265.524 225.093 262.675C225.645 262.269 226.203 261.863 226.76 261.462C229.338 259.592 231.838 257.623 234.265 255.566L234.739 255.16C235.203 254.764 235.666 254.368 236.124 253.972L236.515 253.633C239.072 251.415 241.51 249.081 243.895 246.686C244.317 246.258 244.739 245.837 245.166 245.415C246.541 244.04 247.885 242.654 249.145 241.165C249.369 240.904 249.598 240.644 249.828 240.383C251.562 238.394 253.182 236.337 254.765 234.222C255.119 233.758 255.479 233.29 255.838 232.831C260.619 226.649 264.604 219.816 268.104 212.842L268.458 212.139C271.958 205.175 274.651 197.951 276.984 190.524L277.265 189.633C279.322 183.035 280.796 176.133 281.677 169.274C281.749 168.701 281.833 168.133 281.916 167.566C283.718 155.326 283.499 141.998 281.546 129.805L281.458 129.258C281.078 126.863 280.619 124.493 280.104 122.123L279.906 121.206C277.911 112.008 274.932 103.165 271.223 94.5241L270.947 93.8731C269.838 91.2533 268.567 88.7429 267.218 86.2377C266.901 85.6387 266.588 85.0345 266.281 84.4304C262.276 76.5866 257.234 69.3262 251.546 62.6022L251.218 62.2168C248.869 59.4356 246.453 56.7481 243.854 54.2012C243.036 53.3991 242.281 52.5658 241.546 51.6908C241.166 51.2585 240.765 50.8939 240.322 50.5293C239.546 49.8679 238.822 49.1699 238.104 48.446C237.109 47.4356 236.067 46.4772 234.984 45.5658L234.291 44.9668C227.999 39.5762 221.286 35.0345 214.104 30.9252L213.515 30.5814C210.51 28.8522 207.416 27.3314 204.265 25.8835L203.598 25.5762C190.546 19.6179 176.729 16.1752 162.505 14.6022L161.958 14.5449C160.453 14.3835 158.947 14.2949 157.432 14.2377L156.687 14.2064C156.171 14.1804 155.651 14.1595 155.135 14.1387C154.348 14.1074 153.562 14.0762 152.77 14.0449L151.255 13.9824C151.02 13.972 150.791 13.9616 150.552 13.9512C148.348 13.8627 146.14 13.8679 143.937 13.9616Z" fill="white"/>
<path d="M93.4733 63.2584C94.9733 63.2584 96.4681 63.2584 97.9681 63.2532C101.395 63.2532 104.827 63.248 108.26 63.2532C111.869 63.2532 115.479 63.2532 119.088 63.248C125.661 63.248 132.234 63.248 138.812 63.248H140.65C147.015 63.248 153.385 63.248 159.749 63.2428C167.697 63.2376 175.64 63.2324 183.588 63.2376H184.156C186.994 63.2376 189.827 63.2376 192.661 63.2324C195.885 63.2324 199.114 63.2272 202.338 63.2324C203.984 63.2324 205.624 63.2324 207.265 63.2324C228.088 63.1959 228.088 63.1959 237.765 68.6074C241.432 70.7428 244.645 73.3574 247.703 76.2845L248.197 76.748C253.635 81.9876 257.64 89.2636 259.755 96.4615C260.921 100.784 261.442 105.019 261.442 109.477L261.447 110.06C261.442 113.019 261.296 115.863 260.666 118.764L260.557 119.295C259.109 126.295 256.218 132.571 251.484 137.946C251.109 138.357 250.729 138.758 250.343 139.165L250.005 139.529C248.057 141.602 245.994 143.352 243.624 144.925L243.156 145.238C238.13 148.524 231.979 150.722 225.963 151.133C218.952 151.508 212.572 150.514 206.27 147.378C200.984 144.602 196.656 140.284 193.447 135.295C191.38 131.816 189.885 128.212 188.906 124.284L188.775 123.774C187.499 118.576 187.979 113.081 189.385 107.962C190.458 104.368 192.437 100.935 194.906 98.123C195.051 97.9407 195.202 97.7636 195.359 97.5761C197.968 94.4876 201.473 92.149 205.229 90.6803C209.551 89.2428 214.338 88.9928 218.801 89.8886C222.994 90.8001 226.468 92.6647 229.703 95.4824L230.15 95.8678C232.614 98.1595 234.395 101.383 235.541 104.508C236.463 107.618 236.588 111.097 236.025 114.295C235.39 116.941 234.27 119.462 232.479 121.524C232.119 121.889 231.755 122.253 231.385 122.602L230.947 123.019C229.364 124.352 227.135 125.217 225.119 125.639C222.937 125.899 220.822 125.831 218.775 124.993C217.005 124.165 215.671 123.18 214.525 121.581C213.656 120.206 213.182 118.795 213.098 117.175L213.145 116.602C214.583 117.081 214.583 117.081 215.244 117.352C216.338 117.649 217.296 117.717 218.426 117.566C219.65 117.217 220.791 116.784 221.781 115.967C222.77 114.883 223.244 113.665 223.702 112.284C223.854 110.508 223.801 108.941 223.046 107.31C222.145 105.675 221.124 104.555 219.546 103.534C217.708 102.472 216.088 102.107 213.984 102.081C211.604 102.107 209.848 102.691 207.791 103.868C205.447 105.295 203.989 107.243 202.682 109.613C202.38 110.248 202.109 110.899 201.864 111.566L201.635 112.175C200.729 115.06 200.781 118.618 201.426 121.56C201.624 122.321 201.854 123.06 202.104 123.805L202.369 124.628C203.562 128.055 205.807 130.748 208.421 133.206C211.046 135.462 214.52 137.014 217.926 137.649C222.775 138.357 227.197 137.774 231.755 136.04C235.999 134.331 239.687 131.43 242.536 127.863C245.468 123.8 247.572 118.873 248.135 113.868C248.239 112.56 248.255 111.253 248.26 109.946L248.265 109.133C248.218 103.732 246.734 98.3365 244.057 93.6542C240.979 88.4303 236.812 84.3001 231.64 81.1438C229.296 79.8313 226.843 78.7897 224.275 78.0084L223.817 77.8678C220.307 76.8626 216.744 76.9355 213.135 76.9407H211.374C210.104 76.9355 208.833 76.9355 207.567 76.9355C205.676 76.9407 203.786 76.9355 201.9 76.9355C198.327 76.9303 194.76 76.9303 191.187 76.9303C187.437 76.9303 183.682 76.9303 179.932 76.9303C174.374 76.9251 168.822 76.9251 163.265 76.9251H158.812L157.531 76.9303C150.906 76.9303 144.275 76.9251 137.65 76.9251C129.406 76.9147 121.156 76.9147 112.911 76.9147H112.317C109.369 76.9147 106.416 76.9147 103.463 76.9147C100.109 76.9095 96.7494 76.9095 93.3952 76.9147C91.5202 76.9147 89.64 76.9147 87.765 76.9095C86.3587 76.9095 84.9577 76.9095 83.5515 76.9147C82.989 76.9147 82.4212 76.9147 81.8535 76.9095C77.7962 76.899 74.015 77.1595 70.1504 78.5188L69.5046 78.7428C64.0046 80.6803 59.3379 84.2063 55.4629 88.524C54.5723 89.5865 53.8015 90.7115 53.0619 91.8834L52.7598 92.3574C50.8692 95.373 49.7181 98.5553 48.7442 101.962L48.5931 102.472C47.3171 106.915 47.6035 112.649 48.6608 117.102C49.2598 119.352 50.1348 121.472 51.1452 123.566L51.4942 124.316C53.4056 128.113 56.6244 131.529 60.14 133.852C64.2858 136.415 68.6348 137.857 73.5254 138.04C76.6608 137.962 79.7337 137.352 82.5827 136.045L83.3067 135.732C86.5306 134.243 89.1869 131.977 91.2546 129.092C93.2025 126.113 94.5879 122.545 94.864 118.972C95.0358 115.691 94.5983 112.623 93.2494 109.597C92.2233 107.592 90.8067 105.618 88.916 104.342C87.0931 103.191 85.3431 102.243 83.1504 102.113C81.0306 102.06 79.1296 102.055 77.1921 103.034C75.364 104.139 74.2077 105.232 73.0827 107.066C72.3119 108.566 72.1712 109.837 72.2077 111.503C72.3067 112.837 72.5879 113.857 73.3379 114.967C74.1452 115.972 74.9577 116.628 76.1296 117.159C77.3171 117.592 78.4473 117.712 79.7025 117.566C80.3587 117.347 80.9785 117.097 81.6087 116.816C82.1035 116.602 82.1035 116.602 82.5827 116.602C82.6712 118.17 82.4785 119.472 81.864 120.925C81.1765 122.191 80.3744 123.269 79.2077 124.133C77.3952 125.217 75.2962 125.764 73.1921 125.826C70.9577 125.743 68.6973 125.149 66.7442 124.045C64.4837 122.56 62.8483 120.727 61.6296 118.326C60.541 116.097 59.9212 113.805 59.7858 111.326L59.7442 110.685C59.6452 107.508 60.3379 104.352 61.7025 101.482C63.7494 97.774 66.4994 94.8105 70.1035 92.6022C73.6348 90.5292 77.3327 89.4876 81.4473 89.4251C85.864 89.4095 89.989 90.0136 93.8952 92.1803C96.0515 93.4355 97.8587 94.9355 99.6244 96.6855L100.098 97.1126C102.926 99.7272 105.041 103.67 106.249 107.295C108.119 113.347 108.202 119.331 106.822 125.482C105.322 131.389 102.223 136.347 98.1817 140.842L97.7285 141.363C93.6869 145.675 88.1452 148.316 82.5827 150.04C76.5879 151.607 69.9837 151.769 63.9525 150.264C59.6608 149.019 55.541 147.248 51.864 144.685L51.1712 144.206C47.4212 141.482 44.0358 138.034 41.5462 134.123L41.2129 133.602C39.4421 130.795 38.0827 127.894 36.9837 124.764L36.8015 124.248C34.2129 116.706 33.9421 108.363 35.39 100.576C37.0254 92.2792 40.6765 84.8313 46.2181 78.4563C51.5827 72.3886 58.4577 67.7949 66.0983 65.1126C69.2754 64.0553 72.4785 63.7115 75.8119 63.5397L76.3796 63.5084C82.0723 63.2115 87.7754 63.2532 93.4733 63.2584Z" fill="white"/>
<path d="M108.223 144.243C109.088 144.165 109.927 144.16 110.791 144.175C111.125 144.175 111.453 144.17 111.786 144.17C112.697 144.165 113.609 144.165 114.52 144.175C115.5 144.18 116.484 144.175 117.468 144.175C119.39 144.165 121.317 144.17 123.239 144.18C125.484 144.191 127.723 144.191 129.963 144.191C133.963 144.191 137.958 144.201 141.958 144.217C145.833 144.227 149.713 144.238 153.593 144.232C158.494 144.232 163.395 144.238 168.291 144.248C169.854 144.248 171.416 144.253 172.979 144.253C174.88 144.253 176.786 144.253 178.687 144.264C179.661 144.269 180.63 144.274 181.604 144.274C182.489 144.269 183.38 144.274 184.27 144.279C184.744 144.285 185.218 144.279 185.692 144.279C187.708 144.305 187.708 144.305 188.395 144.706C188.723 145.029 188.723 145.029 189.145 145.644L189.489 146.045L189.776 146.394C193.515 150.977 198.208 154.186 203.546 156.686C203.864 156.842 204.187 157.003 204.505 157.165L204.265 157.404C203.666 157.425 203.072 157.436 202.479 157.436H201.901C201.255 157.436 200.609 157.436 199.963 157.43C199.5 157.43 199.031 157.43 198.567 157.436C197.286 157.436 196.005 157.43 194.718 157.43C193.338 157.43 191.958 157.43 190.578 157.43C188.182 157.43 185.786 157.43 183.395 157.43C179.932 157.425 176.468 157.425 173.005 157.425C167.39 157.425 161.77 157.425 156.156 157.42C150.697 157.42 145.239 157.42 139.781 157.415H122.932C112.52 157.41 102.114 157.41 91.7026 157.404V156.925L92.286 156.712C96.7912 154.93 100.588 151.904 104.005 148.524L104.484 148.05C105.427 147.113 105.427 147.113 106.208 146.045C106.76 145.149 107.187 144.55 108.223 144.243ZM97.7026 88.7637H198.265V89.2428L197.64 89.571C195.453 90.748 193.609 92.123 191.786 93.8053L191.14 94.3887C189.765 95.696 188.645 97.123 187.567 98.6803L187.291 99.071C186.963 99.5658 186.963 99.5658 186.718 100.165C186.385 100.863 186.067 101.394 185.546 101.962C184.552 102.321 183.593 102.29 182.546 102.269L181.625 102.279C180.781 102.29 179.937 102.285 179.093 102.279C178.182 102.274 177.27 102.279 176.359 102.285C174.572 102.3 172.786 102.295 171.005 102.29C169.552 102.285 168.098 102.285 166.651 102.285H166.026L164.765 102.29C160.833 102.295 156.901 102.29 152.963 102.274C149.588 102.264 146.218 102.264 142.843 102.274C138.505 102.29 134.166 102.295 129.833 102.285H129.208C127.76 102.279 126.312 102.285 124.859 102.29C123.093 102.295 121.328 102.295 119.562 102.285C118.661 102.274 117.76 102.274 116.859 102.285C115.885 102.29 114.906 102.279 113.932 102.269L113.067 102.285C112.276 102.264 111.651 102.222 110.906 101.962C110.171 101.248 109.703 100.467 109.223 99.5658C107.973 97.7689 106.64 96.1178 105.145 94.5241L104.77 94.0918C103.822 93.0553 102.708 92.2741 101.557 91.4772L101.072 91.1387C99.9891 90.4095 98.8849 89.8053 97.7026 89.2428V88.7637ZM117.625 116.602H178.343L178.583 122.602C179.052 124.837 179.052 124.837 179.625 127.029C179.864 127.946 180.057 128.878 180.265 129.805H115.942C116.208 128.206 116.208 128.206 116.463 127.42C117.578 123.587 117.473 120.894 117.625 116.602Z" fill="white"/>
</svg>
