<?xml version="1.0" encoding="UTF-8" standalone="no"?>
<svg
   viewBox="0 0 317.74863 51.139999"
   version="1.1"
   id="svg444"
   sodipodi:docname="Lightbeans-logo-original-registered.svg"
   inkscape:version="1.2.2 (b0a8486541, 2022-12-01)"
   width="317.74863"
   height="51.139999"
   xmlns:inkscape="http://www.inkscape.org/namespaces/inkscape"
   xmlns:sodipodi="http://sodipodi.sourceforge.net/DTD/sodipodi-0.dtd"
   xmlns="http://www.w3.org/2000/svg"
   xmlns:svg="http://www.w3.org/2000/svg">
  <sodipodi:namedview
     id="namedview446"
     pagecolor="#ffffff"
     bordercolor="#000000"
     borderopacity="0.25"
     inkscape:showpageshadow="2"
     inkscape:pageopacity="0.0"
     inkscape:pagecheckerboard="true"
     inkscape:deskcolor="#d1d1d1"
     showgrid="false"
     inkscape:zoom="3.025"
     inkscape:cx="185.61983"
     inkscape:cy="32.231405"
     inkscape:window-width="1920"
     inkscape:window-height="1043"
     inkscape:window-x="1920"
     inkscape:window-y="0"
     inkscape:window-maximized="1"
     inkscape:current-layer="Calque_1" />
  <defs
     id="defs404">
    <style
       id="style402">.cls-1{fill:#00e200;}.cls-2{fill:#00be00;}.cls-3{fill:#fff;}.cls-4{fill:#171714;}</style>
  </defs>
  <g
     id="Calque_1"
     style="display:inline"
     transform="translate(-34.579523,-24.43)">
    <g
       id="g441"
       inkscape:label="g441"
       style="display:inline">
      <g
         id="g437"
         style="display:inline">
        <path
           class="cls-1"
           d="m 46.21,25.25 c 0,0 -15.43,-0.6 -10.74,20.56 3.13,14.14 10.44,18.22 15.44,19.31 3.45,0.75 7.11,-0.05 9.87,-2.26 1.93,-1.54 3.64,-3.88 3.25,-7.25 C 63.84,53.95 63.13,52.4 62.11,51.09 60.35,48.81 56.63,43.31 56.23,36.91 55.7,28.49 51.57,25.24 46.2,25.24 Z"
           id="path409"
           style="display:inline" />
        <g
           id="g431"
           style="display:inline">
          <path
             class="cls-4"
             d="m 89.04,59.96 c 0.88,0 1.66,-0.18 2.37,-0.53 l 0.32,5.26 c -1.23,0.46 -2.54,0.68 -3.94,0.68 -2.91,0 -5.18,-0.8 -6.81,-2.39 -1.63,-1.59 -2.44,-3.84 -2.44,-6.75 V 26.01 h 6.57 v 29.75 c 0,2.8 1.31,4.2 3.94,4.2"
             id="path411" />
          <path
             class="cls-4"
             d="m 93.88,31.18 c -0.81,-0.75 -1.21,-1.69 -1.21,-2.81 0,-1.12 0.4,-2.06 1.21,-2.81 0.81,-0.75 1.8,-1.13 3,-1.13 1.2,0 2.19,0.36 3,1.08 0.81,0.72 1.21,1.62 1.21,2.71 0,1.16 -0.39,2.13 -1.18,2.92 -0.79,0.79 -1.8,1.18 -3.02,1.18 -1.22,0 -2.19,-0.38 -3,-1.13 z m -0.32,5.76 h 6.57 v 28.07 h -6.57 z"
             id="path413" />
          <path
             class="cls-4"
             d="m 133.98,36.94 v 23.81 c 0,9.88 -5.05,14.82 -15.14,14.82 -2.7,0 -5.26,-0.34 -7.67,-1.02 -2.42,-0.68 -4.42,-1.67 -5.99,-2.97 l 2.94,-4.94 c 1.23,1.02 2.78,1.83 4.65,2.44 1.87,0.61 3.78,0.92 5.7,0.92 3.08,0 5.34,-0.7 6.78,-2.1 1.44,-1.4 2.15,-3.54 2.15,-6.41 v -1.47 c -1.12,1.23 -2.49,2.15 -4.1,2.79 -1.61,0.63 -3.38,0.95 -5.31,0.95 -2.66,0 -5.07,-0.57 -7.23,-1.71 -2.15,-1.14 -3.85,-2.74 -5.1,-4.81 -1.24,-2.07 -1.87,-4.43 -1.87,-7.1 0,-2.67 0.62,-5.02 1.87,-7.07 1.24,-2.05 2.94,-3.64 5.1,-4.76 2.15,-1.12 4.56,-1.68 7.23,-1.68 2.03,0 3.88,0.33 5.55,1 1.66,0.67 3.06,1.68 4.18,3.05 v -3.73 h 6.25 z m -8.86,19 c 1.59,-1.49 2.39,-3.42 2.39,-5.81 0,-2.39 -0.8,-4.26 -2.39,-5.73 -1.59,-1.47 -3.64,-2.21 -6.12,-2.21 -2.48,0 -4.58,0.74 -6.18,2.21 -1.59,1.47 -2.39,3.38 -2.39,5.73 0,2.35 0.8,4.32 2.39,5.81 1.59,1.49 3.65,2.23 6.18,2.23 2.53,0 4.53,-0.74 6.12,-2.23 z"
             id="path415" />
          <path
             class="cls-4"
             d="m 164.41,39.72 c 2.14,2.07 3.21,5.13 3.21,9.2 V 65 h -6.57 V 49.76 c 0,-2.45 -0.58,-4.3 -1.73,-5.55 -1.16,-1.24 -2.8,-1.87 -4.94,-1.87 -2.42,0 -4.33,0.73 -5.73,2.18 -1.4,1.45 -2.1,3.55 -2.1,6.28 v 14.19 h -6.57 V 26.01 h 6.57 V 40.2 c 1.09,-1.16 2.43,-2.04 4.02,-2.65 1.59,-0.61 3.37,-0.92 5.33,-0.92 3.54,0 6.38,1.03 8.51,3.1 z"
             id="path417" />
          <path
             class="cls-4"
             d="m 189.11,63.48 c -0.77,0.63 -1.71,1.1 -2.81,1.42 -1.1,0.32 -2.27,0.47 -3.5,0.47 -3.08,0 -5.47,-0.81 -7.15,-2.42 -1.68,-1.61 -2.52,-3.96 -2.52,-7.04 V 30.74 h 6.57 v 6.41 h 7.52 v 5.26 h -7.52 v 13.35 c 0,1.37 0.34,2.41 1.02,3.13 0.68,0.72 1.64,1.08 2.86,1.08 1.47,0 2.7,-0.39 3.68,-1.16 l 1.84,4.68 z"
             id="path419" />
          <path
             class="cls-4"
             d="m 214.79,38.41 c 2.15,1.19 3.84,2.87 5.07,5.05 1.23,2.17 1.84,4.68 1.84,7.52 0,2.84 -0.61,5.35 -1.84,7.54 -1.23,2.19 -2.92,3.88 -5.07,5.07 -2.15,1.19 -4.6,1.79 -7.33,1.79 -1.93,0 -3.69,-0.33 -5.28,-1 -1.59,-0.66 -2.94,-1.66 -4.02,-3 v 3.63 h -6.25 v -39 h 6.57 v 14.35 c 1.12,-1.23 2.44,-2.16 3.97,-2.79 1.52,-0.63 3.2,-0.95 5.02,-0.95 2.73,0 5.18,0.6 7.33,1.79 z m -2.1,18.92 c 1.56,-1.61 2.34,-3.73 2.34,-6.36 0,-2.63 -0.78,-4.75 -2.34,-6.36 -1.56,-1.61 -3.55,-2.42 -5.97,-2.42 -1.58,0 -3,0.36 -4.26,1.08 -1.26,0.72 -2.26,1.74 -3,3.08 -0.74,1.33 -1.1,2.87 -1.1,4.62 0,1.75 0.37,3.29 1.1,4.63 0.74,1.33 1.73,2.36 3,3.07 1.26,0.72 2.68,1.08 4.26,1.08 2.42,0 4.41,-0.81 5.97,-2.42 z"
             id="path421" />
          <path
             class="cls-4"
             d="m 245.09,58.29 2.67,4.61 c -1.48,1.26 -3.24,2.09 -5.27,2.5 -2.04,0.41 -4.24,0.39 -6.62,-0.05 -3.03,-0.56 -5.59,-1.66 -7.67,-3.3 -2.08,-1.63 -3.56,-3.64 -4.41,-6.03 -0.86,-2.39 -1.03,-4.94 -0.53,-7.66 0.5,-2.69 1.56,-4.99 3.18,-6.92 1.62,-1.93 3.62,-3.29 6,-4.1 2.38,-0.81 4.93,-0.96 7.65,-0.45 2.58,0.48 4.83,1.48 6.74,2.99 1.91,1.51 3.29,3.43 4.15,5.74 0.85,2.32 1.02,4.87 0.5,7.66 l -21.9,0.21 c 0.36,1.71 1.19,3.11 2.48,4.2 1.29,1.09 2.96,1.83 4.99,2.21 3,0.56 5.68,0.02 8.05,-1.61 z M 232.93,43.31 c -1.75,1.28 -2.87,3.23 -3.36,5.85 v 0.05 l 16.15,-0.1 c -0.13,-1.77 -0.79,-3.3 -1.95,-4.59 -1.17,-1.29 -2.72,-2.11 -4.65,-2.47 -2.38,-0.44 -4.44,-0.02 -6.19,1.26 z"
             id="path423" />
          <path
             class="cls-4"
             d="m 282.77,36.94 v 28.07 h -6.25 v -3.63 c -1.09,1.33 -2.43,2.33 -4.02,3 -1.59,0.67 -3.36,1 -5.28,1 -2.73,0 -5.18,-0.6 -7.33,-1.79 -2.15,-1.19 -3.84,-2.87 -5.05,-5.05 -1.21,-2.17 -1.81,-4.7 -1.81,-7.57 0,-2.87 0.6,-5.39 1.81,-7.54 1.21,-2.15 2.89,-3.83 5.05,-5.02 2.15,-1.19 4.6,-1.79 7.33,-1.79 1.82,0 3.5,0.32 5.02,0.95 1.52,0.63 2.85,1.56 3.97,2.79 v -3.42 h 6.57 z m -8.83,20.39 c 1.58,-1.61 2.37,-3.73 2.37,-6.36 0,-2.63 -0.79,-4.75 -2.37,-6.36 -1.58,-1.61 -3.57,-2.42 -5.99,-2.42 -2.42,0 -4.41,0.81 -5.97,2.42 -1.56,1.61 -2.34,3.73 -2.34,6.36 0,2.63 0.78,4.75 2.34,6.36 1.56,1.61 3.55,2.42 5.97,2.42 2.42,0 4.42,-0.81 5.99,-2.42 z"
             id="path425" />
          <path
             class="cls-4"
             d="m 313.2,39.72 c 2.14,2.07 3.21,5.13 3.21,9.2 V 65 h -6.57 V 49.76 c 0,-2.45 -0.58,-4.3 -1.73,-5.55 -1.16,-1.24 -2.8,-1.87 -4.94,-1.87 -2.42,0 -4.33,0.73 -5.73,2.18 -1.4,1.45 -2.1,3.55 -2.1,6.28 v 14.19 h -6.57 V 36.92 h 6.25 v 3.63 c 1.09,-1.3 2.45,-2.28 4.1,-2.94 1.65,-0.66 3.5,-1 5.57,-1 3.54,0 6.38,1.03 8.51,3.1 z"
             id="path427" />
          <path
             class="cls-4"
             d="m 324.13,64.48 c -2.17,-0.6 -3.91,-1.35 -5.2,-2.26 l 2.52,-4.99 c 1.26,0.84 2.78,1.52 4.55,2.02 1.77,0.51 3.51,0.76 5.23,0.76 3.92,0 5.89,-1.03 5.89,-3.1 0,-0.98 -0.5,-1.66 -1.5,-2.05 -1,-0.39 -2.6,-0.75 -4.81,-1.1 -2.31,-0.35 -4.2,-0.75 -5.65,-1.21 -1.45,-0.46 -2.72,-1.25 -3.78,-2.39 -1.07,-1.14 -1.6,-2.72 -1.6,-4.76 0,-2.66 1.11,-4.79 3.34,-6.39 2.22,-1.59 5.23,-2.39 9.01,-2.39 1.93,0 3.85,0.22 5.78,0.66 1.93,0.44 3.5,1.03 4.73,1.76 l -2.52,4.99 c -2.38,-1.4 -5.06,-2.1 -8.04,-2.1 -1.93,0 -3.39,0.29 -4.39,0.87 -1,0.58 -1.5,1.34 -1.5,2.29 0,1.05 0.53,1.8 1.6,2.23 1.07,0.44 2.72,0.85 4.97,1.23 2.24,0.35 4.08,0.75 5.52,1.21 1.44,0.46 2.67,1.23 3.71,2.31 1.03,1.09 1.55,2.63 1.55,4.63 0,2.63 -1.14,4.73 -3.42,6.31 -2.28,1.58 -5.38,2.37 -9.3,2.37 -2.28,0 -4.5,-0.3 -6.67,-0.89 z"
             id="path429" />
        </g>
        <path
           class="cls-2"
           d="m 60.78,62.85 c -2.77,2.2 -6.42,3 -9.87,2.26 -5,-1.08 -12.31,-5.18 -15.44,-19.32 -2.99,-13.45 2.17,-18.1 6.31,-19.71 -3.65,1.84 -7.51,6.46 -4.94,18.03 2.93,13.24 9.77,17.06 14.45,18.08 3.23,0.7 6.65,-0.05 9.25,-2.11 1.71,-1.36 3.23,-3.39 3.08,-6.29 0.21,0.59 0.35,1.19 0.42,1.81 0.39,3.37 -1.32,5.71 -3.25,7.25 z"
           id="path433" />
        <path
           class="cls-3"
           d="m 41.86,30.17 c -0.66,1.32 -1.03,2.7 -1.26,4.07 -0.22,1.38 -0.24,2.77 -0.15,4.16 0.07,1.39 0.33,2.79 0.56,4.2 0.15,0.7 0.31,1.41 0.44,2.14 0.17,0.72 0.35,1.44 0.45,2.21 v 0 c 0.01,0.11 -0.05,0.19 -0.15,0.21 -0.06,0 -0.12,-0.02 -0.16,-0.06 -0.48,-0.6 -0.89,-1.25 -1.31,-1.9 -0.35,-0.68 -0.69,-1.38 -0.98,-2.1 -0.51,-1.46 -0.94,-2.98 -0.98,-4.58 -0.07,-1.58 0.1,-3.19 0.63,-4.7 0.54,-1.49 1.37,-2.92 2.68,-3.86 0.07,-0.05 0.17,-0.04 0.22,0.04 0.04,0.05 0.04,0.11 0.01,0.16 v 0.02 z"
           id="path435" />
      </g>
      <path
         class="cls-4"
         d="m 348.64916,39 c -0.52204,0 -1.00924,-0.08949 -1.45668,-0.268464 -0.44746,-0.178976 -0.83025,-0.422584 -1.15838,-0.735795 -0.32814,-0.313211 -0.58168,-0.686079 -0.76065,-1.108664 C 345.09447,36.464487 345,35.997158 345,35.490056 c 0,-0.507103 0.0896,-0.959518 0.27356,-1.387075 0.18396,-0.427559 0.4375,-0.795457 0.76065,-1.103695 0.32813,-0.308238 0.71092,-0.556816 1.15839,-0.730822 C 347.64004,32.089488 348.12228,32 348.64927,32 c 0.52699,0 1.00923,0.08949 1.46163,0.268464 0.45242,0.178976 0.84022,0.422584 1.16832,0.730822 0.32814,0.308238 0.58666,0.681109 0.77062,1.103695 0.18396,0.427557 0.27832,0.889915 0.27832,1.387075 0,0.497159 -0.0944,0.969461 -0.27832,1.397018 -0.18396,0.427556 -0.44248,0.795453 -0.77062,1.108664 -0.3281,0.313211 -0.72086,0.556819 -1.16832,0.735795 -0.44744,0.178976 -0.93464,0.268464 -1.46163,0.268464 z m 0,-0.477274 c 0.4375,0 0.85013,-0.07456 1.23295,-0.22372 0.38281,-0.149156 0.71092,-0.357955 0.99431,-0.621449 0.28338,-0.26348 0.50212,-0.581679 0.6662,-0.954546 0.16408,-0.372871 0.2436,-0.77557 0.2436,-1.21804 0,-0.442472 -0.0795,-0.825286 -0.23856,-1.193183 -0.15904,-0.367898 -0.37783,-0.691053 -0.65624,-0.959517 -0.27832,-0.268464 -0.60653,-0.487217 -0.98935,-0.641337 -0.38281,-0.154112 -0.80043,-0.23366 -1.25283,-0.23366 -0.45242,0 -0.87004,0.07955 -1.24788,0.23366 -0.37783,0.154112 -0.70596,0.367898 -0.97941,0.641337 -0.27328,0.273448 -0.4872,0.591619 -0.64629,0.954547 -0.154,0.362925 -0.2338,0.755681 -0.2338,1.178265 0,0.422587 0.0795,0.825286 0.2338,1.193184 0.154,0.367897 0.36789,0.691052 0.64629,0.964489 0.27832,0.273448 0.60158,0.492187 0.97941,0.646307 0.37784,0.154112 0.79546,0.23366 1.24788,0.23366 z m -1.57103,-5.1804 h 1.88919 c 0.19404,0 0.37288,0.03979 0.54191,0.124292 0.16912,0.0845 0.31321,0.1939 0.43252,0.328125 0.11928,0.134232 0.21364,0.288352 0.28339,0.457385 0.0697,0.169036 0.10444,0.338069 0.10444,0.512075 0,0.26348 -0.0697,0.512073 -0.21364,0.745738 -0.1442,0.23366 -0.32814,0.392756 -0.5618,0.482244 l 0.9993,1.610797 h -1.03906 l -0.88992,-1.436791 H 348.003 v 1.436791 h -0.91974 v -4.265626 z m 1.81463,2.038353 c 0.16408,0 0.28834,-0.05468 0.38281,-0.159096 0.0944,-0.104412 0.13916,-0.258524 0.13916,-0.452415 0,-0.208796 -0.0546,-0.357952 -0.15904,-0.462356 -0.10444,-0.09943 -0.2338,-0.149156 -0.38281,-0.149156 h -0.875 v 1.223009 h 0.88989 z"
         id="path439"
         style="display:inline;stroke-width:0.49716" />
    </g>
  </g>
</svg>
