<svg preserveAspectRatio="xMidYMid meet" data-bbox="0.5 103 6671 1202.52" xmlns="http://www.w3.org/2000/svg" viewBox="0 0 6672 1306" height="1306" width="6672" role="img" aria-label="Logo propulsion">
    <g>
        <path stroke-linecap="round" stroke-width="205" stroke="#104247" d="M4975 103v1" fill="none"/>
        <path stroke-linecap="square" stroke-width="205" stroke="#104247" d="M627 640.016c0 144.699-117.301 262-262 262s-262-117.301-262-262 117.301-262 262-262 262 117.301 262 262z" fill="none"/>
        <path fill="#104247" d="M205.5 640.016c0-56.61-45.891-102.5-102.5-102.5-56.61 0-102.5 45.89-102.5 102.5h205ZM.5 1203.02v102.5h205v-102.5H.5Zm0-563.004v563.004h205V640.016H.5Z"/>
        <path stroke-linecap="square" stroke-width="205" stroke="#104247" d="M2833 618.016c0 144.699-117.301 262-262 262s-262-117.301-262-262 117.301-262 262-262 262 117.301 262 262z" fill="none"/>
        <path fill="#104247" d="M2411.5 640.016c0-56.61-45.89-102.5-102.5-102.5s-102.5 45.89-102.5 102.5h205Zm-205 563.004v102.5h205v-102.5h-205Zm0-563.004v563.004h205V640.016h-205Z"/>
        <path stroke-linecap="square" stroke-width="205" stroke="#7BD0AE" d="M2037 618.016c0 144.698-117.3 262-262 262s-262-117.302-262-262c0-144.699 117.3-262 262-262s262 117.301 262 262Z" fill="none"/>
        <path stroke-linecap="square" stroke-width="205" stroke="#104247" d="M5772 640.016c0 144.699-117.301 262-262 262s-262-117.301-262-262 117.301-262 262-262 262 117.301 262 262z" fill="none"/>
        <path stroke-linecap="round" stroke-width="205" stroke="#104247" d="M3927 749.016 3926.5 103" fill="none"/>
        <path stroke-linecap="round" stroke-width="205" stroke="#104247" d="M4052 879.006h513" fill="none"/>
        <path stroke-linecap="round" stroke-width="205" stroke="#104247" d="m4362 380 257-2" fill="none"/>
        <path stroke-linecap="round" stroke-width="205" stroke="#104247" d="M4362 630h194" fill="none"/>
        <path stroke-linecap="round" stroke-width="205" stroke="#104247" d="M4556 880c28.05 0 53.94-9.237 74.79-24.835C4661.27 832.37 4681 795.989 4681 755c0-69.036-55.96-125-125-125" fill="none"/>
        <path stroke-linecap="round" stroke-width="205" stroke="#104247" d="M4362 630c-28.05 0-53.94-9.237-74.79-24.835C4256.73 582.37 4237 545.989 4237 505c0-69.036 55.96-125 125-125" fill="none"/>
        <path stroke-linecap="square" stroke-width="205" stroke="#104247" d="M4052 880.016c-69.04 0-125-55.965-125-125" fill="none"/>
        <path stroke-linecap="round" stroke-width="205" stroke="#104247" d="M1241 527.016c0-38.368-12.64-73.785-33.97-102.315-31.19-41.697-80.96-68.685-137.03-68.685-94.441 0-171 76.559-171 171" fill="none"/>
        <path fill="#104247" d="M1001.5 527.016c0-56.61-45.891-102.5-102.5-102.5s-102.5 45.89-102.5 102.5h205Zm-205 353v102.5h205v-102.5h-205Zm0-353v353h205v-353h-205Z"/>
        <path stroke-linecap="square" stroke-width="205" stroke="#104247" d="M3629 618.016c0 144.698-117.3 262-262 262s-262-117.302-262-262" fill="none"/>
        <path stroke-linecap="round" stroke-width="205" stroke="#104247" d="M3105 356.016v262" fill="none"/>
        <path stroke-linecap="round" stroke-width="205" stroke="#104247" d="M3629 356.016v262" fill="none"/>
        <path fill="#104247" d="M5077.5 376.016c0-56.61-45.89-102.5-102.5-102.5s-102.5 45.891-102.5 102.5h205Zm-205 502.015v102.5h205v-102.5h-205Zm0-502.015v502.015h205V376.016h-205Z"/>
        <path fill="#104247" d="M5942.5 642c0 56.609 45.89 102.5 102.5 102.5s102.5-45.891 102.5-102.5h-205Zm524 0v102.5h205V642h-205Zm-319 0c0-88.089 71.41-159.5 159.5-159.5v-205c-201.31 0-364.5 163.192-364.5 364.5h205ZM6307 482.5c88.09 0 159.5 71.411 159.5 159.5h205c0-201.308-163.19-364.5-364.5-364.5v205Z"/>
        <path fill="#104247" d="M6466.5 880v102.5h205V880h-205Zm205-250c0-56.609-45.89-102.5-102.5-102.5s-102.5 45.891-102.5 102.5h205Zm0 250V630h-205v250h205Z"/>
        <path fill="#104247" d="M5942.5 880v102.5h205V880h-205Zm205-250c0-56.609-45.89-102.5-102.5-102.5s-102.5 45.891-102.5 102.5h205Zm0 250V630h-205v250h205Z"/>
    </g>
</svg>