<?xml version="1.0" encoding="utf-8"?>
<svg xmlns="http://www.w3.org/2000/svg" width="168.4" height="19.29" viewBox="0 0 168.4 19.29">
  <title>Spektrum</title>
  <path d="M6.91,0a6.82,6.82,0,0,1,3.55.93,6.9,6.9,0,0,1,2.45,2.4L10.83,4.94A4.5,4.5,0,0,0,6.94,2.68a3.3,3.3,0,0,0-2,.59A2,2,0,0,0,4.12,5a1.81,1.81,0,0,0,.59,1.47,8.83,8.83,0,0,0,2,1.18l2.09,1a10.08,10.08,0,0,1,3.36,2.28,4.39,4.39,0,0,1,1.1,3,4.82,4.82,0,0,1-1.78,3.89A6.76,6.76,0,0,1,7,19.26a8.07,8.07,0,0,1-4.12-1.07,7.64,7.64,0,0,1-2.88-3l2.12-1.61q2.07,3,4.91,3a3.62,3.62,0,0,0,2.34-.71,2.31,2.31,0,0,0,.9-1.89,1.9,1.9,0,0,0-.62-1.52,9.22,9.22,0,0,0-2.12-1.24l-2.06-1A10.29,10.29,0,0,1,2.26,8.12a4.29,4.29,0,0,1-1.13-3A4.49,4.49,0,0,1,2.82,1.44,6.33,6.33,0,0,1,7,0Z" fill="#fff"/>
  <path d="M28.17.31a6.57,6.57,0,0,1,4.57,1.58A5.31,5.31,0,0,1,34.49,6a5.41,5.41,0,0,1-1.75,4.15,6.45,6.45,0,0,1-4.57,1.61H24.37V19h-3V.34h6.8ZM24.37,3V9.11h3.75a3.3,3.3,0,0,0,2.43-.85A3,3,0,0,0,31.39,6a3,3,0,0,0-.85-2.23A3.3,3.3,0,0,0,28.12,3Z" fill="#fff"/>
  <path d="M54.29,3H45V8.37h6.75V11H45v5.25h9.59v2.68H42.05V.27H54.29Z" fill="#fff"/>
  <path d="M98.43,3H92.14V19h-3V3H82.89V.34H98.43Z" fill="#fff"/>
  <path d="M117.13,19l-5.3-7.19h-3.41V19h-3V.34h6.8a6.57,6.57,0,0,1,4.57,1.58A5.31,5.31,0,0,1,118.54,6a5.66,5.66,0,0,1-.93,3.22,5.28,5.28,0,0,1-2.62,2L120.57,19Zm-8.72-9.84h3.75a3.41,3.41,0,0,0,2.45-.85,2.89,2.89,0,0,0,.87-2.2,2.91,2.91,0,0,0-.87-2.23A3.41,3.41,0,0,0,112.16,3h-3.75Z" fill="#fff"/>
  <path d="M141.92,11.42a7.89,7.89,0,0,1-2.12,5.75,8.21,8.21,0,0,1-11,0,7.77,7.77,0,0,1-2.12-5.75V.34h3V11.62A4.83,4.83,0,0,0,131,15.26a4.66,4.66,0,0,0,3.38,1.27,4.57,4.57,0,0,0,3.33-1.27,4.82,4.82,0,0,0,1.3-3.64V.34h3Z" fill="#fff"/>
  <polygon points="62.86 16.03 63 16.03 62.86 15.91 62.86 16.03" fill="#f25a2c"/>
  <polygon points="77.22 14.47 77.36 14.47 77.22 14.35 77.22 14.47" fill="#72260e"/>
  <polygon points="72.24 0.34 65.4 8.21 65.4 0.34 62.47 0.34 62.47 11.57 62.47 15.74 62.61 15.86 65.4 12.66 76.12 0.34 72.24 0.34" fill="#206bff"/>
  <polygon points="70.91 10.96 67.51 10.96 67.36 11.07 73.17 18.95 76.8 18.95 70.91 10.96" fill="#206bff"/>
  <polygon points="167.38 0.03 159.57 10.44 151.76 0.03 150.72 0.03 150.72 18.95 153.7 18.95 153.7 7.28 159.57 14.95 165.41 7.28 165.41 18.95 168.4 18.95 168.4 0.03 167.38 0.03" fill="#fff"/>
</svg>